<?xml version="1.0" encoding="UTF-8" ?>
<svg version="1.1" width="96" height="48" xmlns="http://www.w3.org/2000/svg" shape-rendering="crispEdges">
<rect x="4" y="20" width="1" height="1" fill="#25973A" />
<rect x="5" y="20" width="1" height="1" fill="#25973A" />
<rect x="6" y="20" width="1" height="1" fill="#25973A" />
<rect x="7" y="20" width="1" height="1" fill="#25973A" />
<rect x="8" y="20" width="1" height="1" fill="#25973A" />
<rect x="9" y="20" width="1" height="1" fill="#25973A" />
<rect x="10" y="20" width="1" height="1" fill="#25973A" />
<rect x="11" y="20" width="1" height="1" fill="#25973A" />
<rect x="14" y="20" width="1" height="1" fill="#25973A" />
<rect x="15" y="20" width="1" height="1" fill="#25973A" />
<rect x="16" y="20" width="1" height="1" fill="#25973A" />
<rect x="17" y="20" width="1" height="1" fill="#25973A" />
<rect x="18" y="20" width="1" height="1" fill="#25973A" />
<rect x="19" y="20" width="1" height="1" fill="#25973A" />
<rect x="23" y="20" width="1" height="1" fill="#25973A" />
<rect x="24" y="20" width="1" height="1" fill="#25973A" />
<rect x="25" y="20" width="1" height="1" fill="#25973A" />
<rect x="26" y="20" width="1" height="1" fill="#25973A" />
<rect x="27" y="20" width="1" height="1" fill="#25973A" />
<rect x="28" y="20" width="1" height="1" fill="#25973A" />
<rect x="29" y="20" width="1" height="1" fill="#25973A" />
<rect x="30" y="20" width="1" height="1" fill="#25973A" />
<rect x="33" y="20" width="1" height="1" fill="#25973A" />
<rect x="34" y="20" width="1" height="1" fill="#25973A" />
<rect x="35" y="20" width="1" height="1" fill="#25973A" />
<rect x="36" y="20" width="1" height="1" fill="#25973A" />
<rect x="37" y="20" width="1" height="1" fill="#25973A" />
<rect x="38" y="20" width="1" height="1" fill="#25973A" />
<rect x="39" y="20" width="1" height="1" fill="#25973A" />
<rect x="40" y="20" width="1" height="1" fill="#25973A" />
<rect x="43" y="20" width="1" height="1" fill="#25973A" />
<rect x="44" y="20" width="1" height="1" fill="#25973A" />
<rect x="45" y="20" width="1" height="1" fill="#25973A" />
<rect x="46" y="20" width="1" height="1" fill="#25973A" />
<rect x="47" y="20" width="1" height="1" fill="#25973A" />
<rect x="48" y="20" width="1" height="1" fill="#25973A" />
<rect x="49" y="20" width="1" height="1" fill="#25973A" />
<rect x="50" y="20" width="1" height="1" fill="#25973A" />
<rect x="53" y="20" width="1" height="1" fill="#25973A" />
<rect x="54" y="20" width="1" height="1" fill="#25973A" />
<rect x="55" y="20" width="1" height="1" fill="#25973A" />
<rect x="56" y="20" width="1" height="1" fill="#25973A" />
<rect x="57" y="20" width="1" height="1" fill="#25973A" />
<rect x="58" y="20" width="1" height="1" fill="#25973A" />
<rect x="59" y="20" width="1" height="1" fill="#25973A" />
<rect x="60" y="20" width="1" height="1" fill="#25973A" />
<rect x="62" y="20" width="1" height="1" fill="#25973A" />
<rect x="63" y="20" width="1" height="1" fill="#25973A" />
<rect x="64" y="20" width="1" height="1" fill="#25973A" />
<rect x="65" y="20" width="1" height="1" fill="#25973A" />
<rect x="66" y="20" width="1" height="1" fill="#25973A" />
<rect x="67" y="20" width="1" height="1" fill="#25973A" />
<rect x="68" y="20" width="1" height="1" fill="#25973A" />
<rect x="69" y="20" width="1" height="1" fill="#25973A" />
<rect x="72" y="20" width="1" height="1" fill="#25973A" />
<rect x="73" y="20" width="1" height="1" fill="#25973A" />
<rect x="74" y="20" width="1" height="1" fill="#25973A" />
<rect x="75" y="20" width="1" height="1" fill="#25973A" />
<rect x="76" y="20" width="1" height="1" fill="#25973A" />
<rect x="77" y="20" width="1" height="1" fill="#25973A" />
<rect x="78" y="20" width="1" height="1" fill="#25973A" />
<rect x="79" y="20" width="1" height="1" fill="#25973A" />
<rect x="82" y="20" width="1" height="1" fill="#25973A" />
<rect x="83" y="20" width="1" height="1" fill="#25973A" />
<rect x="84" y="20" width="1" height="1" fill="#25973A" />
<rect x="85" y="20" width="1" height="1" fill="#25973A" />
<rect x="86" y="20" width="1" height="1" fill="#25973A" />
<rect x="87" y="20" width="1" height="1" fill="#25973A" />
<rect x="88" y="20" width="1" height="1" fill="#25973A" />
<rect x="89" y="20" width="1" height="1" fill="#25973A" />
<rect x="4" y="21" width="1" height="1" fill="#25973A" />
<rect x="5" y="21" width="1" height="1" fill="#25973A" />
<rect x="6" y="21" width="1" height="1" fill="#25973A" />
<rect x="7" y="21" width="1" height="1" fill="#25973A" />
<rect x="8" y="21" width="1" height="1" fill="#25973A" />
<rect x="9" y="21" width="1" height="1" fill="#25973A" />
<rect x="10" y="21" width="1" height="1" fill="#25973A" />
<rect x="11" y="21" width="1" height="1" fill="#25973A" />
<rect x="12" y="21" width="1" height="1" fill="#25973A" />
<rect x="14" y="21" width="1" height="1" fill="#25973A" />
<rect x="15" y="21" width="1" height="1" fill="#25973A" />
<rect x="16" y="21" width="1" height="1" fill="#25973A" />
<rect x="17" y="21" width="1" height="1" fill="#25973A" />
<rect x="18" y="21" width="1" height="1" fill="#25973A" />
<rect x="19" y="21" width="1" height="1" fill="#25973A" />
<rect x="20" y="21" width="1" height="1" fill="#25973A" />
<rect x="23" y="21" width="1" height="1" fill="#25973A" />
<rect x="24" y="21" width="1" height="1" fill="#25973A" />
<rect x="25" y="21" width="1" height="1" fill="#25973A" />
<rect x="26" y="21" width="1" height="1" fill="#25973A" />
<rect x="27" y="21" width="1" height="1" fill="#25973A" />
<rect x="28" y="21" width="1" height="1" fill="#25973A" />
<rect x="29" y="21" width="1" height="1" fill="#25973A" />
<rect x="30" y="21" width="1" height="1" fill="#25973A" />
<rect x="31" y="21" width="1" height="1" fill="#25973A" />
<rect x="33" y="21" width="1" height="1" fill="#25973A" />
<rect x="34" y="21" width="1" height="1" fill="#25973A" />
<rect x="35" y="21" width="1" height="1" fill="#25973A" />
<rect x="36" y="21" width="1" height="1" fill="#25973A" />
<rect x="37" y="21" width="1" height="1" fill="#25973A" />
<rect x="38" y="21" width="1" height="1" fill="#25973A" />
<rect x="39" y="21" width="1" height="1" fill="#25973A" />
<rect x="40" y="21" width="1" height="1" fill="#25973A" />
<rect x="41" y="21" width="1" height="1" fill="#25973A" />
<rect x="43" y="21" width="1" height="1" fill="#25973A" />
<rect x="44" y="21" width="1" height="1" fill="#25973A" />
<rect x="45" y="21" width="1" height="1" fill="#25973A" />
<rect x="46" y="21" width="1" height="1" fill="#25973A" />
<rect x="47" y="21" width="1" height="1" fill="#25973A" />
<rect x="48" y="21" width="1" height="1" fill="#25973A" />
<rect x="49" y="21" width="1" height="1" fill="#25973A" />
<rect x="50" y="21" width="1" height="1" fill="#25973A" />
<rect x="51" y="21" width="1" height="1" fill="#25973A" />
<rect x="53" y="21" width="1" height="1" fill="#25973A" />
<rect x="54" y="21" width="1" height="1" fill="#25973A" />
<rect x="55" y="21" width="1" height="1" fill="#25973A" />
<rect x="56" y="21" width="1" height="1" fill="#25973A" />
<rect x="57" y="21" width="1" height="1" fill="#25973A" />
<rect x="58" y="21" width="1" height="1" fill="#25973A" />
<rect x="59" y="21" width="1" height="1" fill="#25973A" />
<rect x="60" y="21" width="1" height="1" fill="#25973A" />
<rect x="61" y="21" width="1" height="1" fill="#25973A" />
<rect x="62" y="21" width="1" height="1" fill="#25973A" />
<rect x="63" y="21" width="1" height="1" fill="#25973A" />
<rect x="64" y="21" width="1" height="1" fill="#25973A" />
<rect x="65" y="21" width="1" height="1" fill="#25973A" />
<rect x="66" y="21" width="1" height="1" fill="#25973A" />
<rect x="67" y="21" width="1" height="1" fill="#25973A" />
<rect x="68" y="21" width="1" height="1" fill="#25973A" />
<rect x="69" y="21" width="1" height="1" fill="#25973A" />
<rect x="70" y="21" width="1" height="1" fill="#25973A" />
<rect x="72" y="21" width="1" height="1" fill="#25973A" />
<rect x="73" y="21" width="1" height="1" fill="#25973A" />
<rect x="74" y="21" width="1" height="1" fill="#25973A" />
<rect x="75" y="21" width="1" height="1" fill="#25973A" />
<rect x="76" y="21" width="1" height="1" fill="#25973A" />
<rect x="77" y="21" width="1" height="1" fill="#25973A" />
<rect x="78" y="21" width="1" height="1" fill="#25973A" />
<rect x="79" y="21" width="1" height="1" fill="#25973A" />
<rect x="80" y="21" width="1" height="1" fill="#25973A" />
<rect x="82" y="21" width="1" height="1" fill="#25973A" />
<rect x="83" y="21" width="1" height="1" fill="#25973A" />
<rect x="84" y="21" width="1" height="1" fill="#25973A" />
<rect x="85" y="21" width="1" height="1" fill="#25973A" />
<rect x="86" y="21" width="1" height="1" fill="#25973A" />
<rect x="87" y="21" width="1" height="1" fill="#25973A" />
<rect x="88" y="21" width="1" height="1" fill="#25973A" />
<rect x="89" y="21" width="1" height="1" fill="#25973A" />
<rect x="90" y="21" width="1" height="1" fill="#25973A" />
<rect x="4" y="22" width="1" height="1" fill="#25973A" />
<rect x="5" y="22" width="1" height="1" fill="#25973A" />
<rect x="6" y="22" width="1" height="1" fill="#9FC1A5" />
<rect x="7" y="22" width="1" height="1" fill="#9FC1A5" />
<rect x="8" y="22" width="1" height="1" fill="#9FC1A5" />
<rect x="9" y="22" width="1" height="1" fill="#9FC1A5" />
<rect x="10" y="22" width="1" height="1" fill="#9FC1A5" />
<rect x="11" y="22" width="1" height="1" fill="#9FC1A5" />
<rect x="12" y="22" width="1" height="1" fill="#25973A" />
<rect x="14" y="22" width="1" height="1" fill="#25973A" />
<rect x="15" y="22" width="1" height="1" fill="#25973A" />
<rect x="16" y="22" width="1" height="1" fill="#9FC1A5" />
<rect x="17" y="22" width="1" height="1" fill="#9FC1A5" />
<rect x="18" y="22" width="1" height="1" fill="#9FC1A5" />
<rect x="19" y="22" width="1" height="1" fill="#9FC1A5" />
<rect x="20" y="22" width="1" height="1" fill="#25973A" />
<rect x="21" y="22" width="1" height="1" fill="#25973A" />
<rect x="23" y="22" width="1" height="1" fill="#25973A" />
<rect x="24" y="22" width="1" height="1" fill="#25973A" />
<rect x="25" y="22" width="1" height="1" fill="#9FC1A5" />
<rect x="26" y="22" width="1" height="1" fill="#9FC1A5" />
<rect x="27" y="22" width="1" height="1" fill="#25973A" />
<rect x="28" y="22" width="1" height="1" fill="#25973A" />
<rect x="29" y="22" width="1" height="1" fill="#9FC1A5" />
<rect x="30" y="22" width="1" height="1" fill="#9FC1A5" />
<rect x="31" y="22" width="1" height="1" fill="#25973A" />
<rect x="33" y="22" width="1" height="1" fill="#25973A" />
<rect x="34" y="22" width="1" height="1" fill="#25973A" />
<rect x="35" y="22" width="1" height="1" fill="#9FC1A5" />
<rect x="36" y="22" width="1" height="1" fill="#9FC1A5" />
<rect x="37" y="22" width="1" height="1" fill="#9FC1A5" />
<rect x="38" y="22" width="1" height="1" fill="#9FC1A5" />
<rect x="39" y="22" width="1" height="1" fill="#9FC1A5" />
<rect x="40" y="22" width="1" height="1" fill="#9FC1A5" />
<rect x="41" y="22" width="1" height="1" fill="#25973A" />
<rect x="43" y="22" width="1" height="1" fill="#25973A" />
<rect x="44" y="22" width="1" height="1" fill="#25973A" />
<rect x="45" y="22" width="1" height="1" fill="#9FC1A5" />
<rect x="46" y="22" width="1" height="1" fill="#9FC1A5" />
<rect x="47" y="22" width="1" height="1" fill="#9FC1A5" />
<rect x="48" y="22" width="1" height="1" fill="#9FC1A5" />
<rect x="49" y="22" width="1" height="1" fill="#9FC1A5" />
<rect x="50" y="22" width="1" height="1" fill="#9FC1A5" />
<rect x="51" y="22" width="1" height="1" fill="#25973A" />
<rect x="53" y="22" width="1" height="1" fill="#25973A" />
<rect x="54" y="22" width="1" height="1" fill="#25973A" />
<rect x="55" y="22" width="1" height="1" fill="#9FC1A5" />
<rect x="56" y="22" width="1" height="1" fill="#9FC1A5" />
<rect x="57" y="22" width="1" height="1" fill="#9FC1A5" />
<rect x="58" y="22" width="1" height="1" fill="#9FC1A5" />
<rect x="59" y="22" width="1" height="1" fill="#9FC1A5" />
<rect x="60" y="22" width="1" height="1" fill="#9FC1A5" />
<rect x="61" y="22" width="1" height="1" fill="#25973A" />
<rect x="62" y="22" width="1" height="1" fill="#25973A" />
<rect x="63" y="22" width="1" height="1" fill="#25973A" />
<rect x="64" y="22" width="1" height="1" fill="#9FC1A5" />
<rect x="65" y="22" width="1" height="1" fill="#9FC1A5" />
<rect x="66" y="22" width="1" height="1" fill="#9FC1A5" />
<rect x="67" y="22" width="1" height="1" fill="#9FC1A5" />
<rect x="68" y="22" width="1" height="1" fill="#9FC1A5" />
<rect x="69" y="22" width="1" height="1" fill="#9FC1A5" />
<rect x="70" y="22" width="1" height="1" fill="#25973A" />
<rect x="72" y="22" width="1" height="1" fill="#25973A" />
<rect x="73" y="22" width="1" height="1" fill="#25973A" />
<rect x="74" y="22" width="1" height="1" fill="#9FC1A5" />
<rect x="75" y="22" width="1" height="1" fill="#9FC1A5" />
<rect x="76" y="22" width="1" height="1" fill="#9FC1A5" />
<rect x="77" y="22" width="1" height="1" fill="#9FC1A5" />
<rect x="78" y="22" width="1" height="1" fill="#9FC1A5" />
<rect x="79" y="22" width="1" height="1" fill="#9FC1A5" />
<rect x="80" y="22" width="1" height="1" fill="#25973A" />
<rect x="82" y="22" width="1" height="1" fill="#25973A" />
<rect x="83" y="22" width="1" height="1" fill="#25973A" />
<rect x="84" y="22" width="1" height="1" fill="#9FC1A5" />
<rect x="85" y="22" width="1" height="1" fill="#9FC1A5" />
<rect x="86" y="22" width="1" height="1" fill="#9FC1A5" />
<rect x="87" y="22" width="1" height="1" fill="#9FC1A5" />
<rect x="88" y="22" width="1" height="1" fill="#9FC1A5" />
<rect x="89" y="22" width="1" height="1" fill="#9FC1A5" />
<rect x="90" y="22" width="1" height="1" fill="#25973A" />
<rect x="4" y="23" width="1" height="1" fill="#25973A" />
<rect x="5" y="23" width="1" height="1" fill="#25973A" />
<rect x="6" y="23" width="1" height="1" fill="#9FC1A5" />
<rect x="7" y="23" width="1" height="1" fill="#9FC1A5" />
<rect x="8" y="23" width="1" height="1" fill="#25973A" />
<rect x="9" y="23" width="1" height="1" fill="#25973A" />
<rect x="10" y="23" width="1" height="1" fill="#25973A" />
<rect x="11" y="23" width="1" height="1" fill="#25973A" />
<rect x="12" y="23" width="1" height="1" fill="#25973A" />
<rect x="14" y="23" width="1" height="1" fill="#25973A" />
<rect x="15" y="23" width="1" height="1" fill="#25973A" />
<rect x="16" y="23" width="1" height="1" fill="#9FC1A5" />
<rect x="17" y="23" width="1" height="1" fill="#9FC1A5" />
<rect x="18" y="23" width="1" height="1" fill="#25973A" />
<rect x="19" y="23" width="1" height="1" fill="#9FC1A5" />
<rect x="20" y="23" width="1" height="1" fill="#9FC1A5" />
<rect x="21" y="23" width="1" height="1" fill="#25973A" />
<rect x="23" y="23" width="1" height="1" fill="#25973A" />
<rect x="24" y="23" width="1" height="1" fill="#25973A" />
<rect x="25" y="23" width="1" height="1" fill="#9FC1A5" />
<rect x="26" y="23" width="1" height="1" fill="#9FC1A5" />
<rect x="27" y="23" width="1" height="1" fill="#25973A" />
<rect x="28" y="23" width="1" height="1" fill="#25973A" />
<rect x="29" y="23" width="1" height="1" fill="#9FC1A5" />
<rect x="30" y="23" width="1" height="1" fill="#9FC1A5" />
<rect x="31" y="23" width="1" height="1" fill="#25973A" />
<rect x="33" y="23" width="1" height="1" fill="#25973A" />
<rect x="34" y="23" width="1" height="1" fill="#25973A" />
<rect x="35" y="23" width="1" height="1" fill="#9FC1A5" />
<rect x="36" y="23" width="1" height="1" fill="#9FC1A5" />
<rect x="37" y="23" width="1" height="1" fill="#25973A" />
<rect x="38" y="23" width="1" height="1" fill="#25973A" />
<rect x="39" y="23" width="1" height="1" fill="#25973A" />
<rect x="40" y="23" width="1" height="1" fill="#25973A" />
<rect x="41" y="23" width="1" height="1" fill="#25973A" />
<rect x="43" y="23" width="1" height="1" fill="#25973A" />
<rect x="44" y="23" width="1" height="1" fill="#25973A" />
<rect x="45" y="23" width="1" height="1" fill="#9FC1A5" />
<rect x="46" y="23" width="1" height="1" fill="#9FC1A5" />
<rect x="47" y="23" width="1" height="1" fill="#25973A" />
<rect x="48" y="23" width="1" height="1" fill="#25973A" />
<rect x="49" y="23" width="1" height="1" fill="#9FC1A5" />
<rect x="50" y="23" width="1" height="1" fill="#9FC1A5" />
<rect x="51" y="23" width="1" height="1" fill="#25973A" />
<rect x="54" y="23" width="1" height="1" fill="#25973A" />
<rect x="55" y="23" width="1" height="1" fill="#25973A" />
<rect x="56" y="23" width="1" height="1" fill="#9FC1A5" />
<rect x="57" y="23" width="1" height="1" fill="#9FC1A5" />
<rect x="58" y="23" width="1" height="1" fill="#9FC1A5" />
<rect x="59" y="23" width="1" height="1" fill="#25973A" />
<rect x="60" y="23" width="1" height="1" fill="#25973A" />
<rect x="61" y="23" width="1" height="1" fill="#25973A" />
<rect x="63" y="23" width="1" height="1" fill="#25973A" />
<rect x="64" y="23" width="1" height="1" fill="#25973A" />
<rect x="65" y="23" width="1" height="1" fill="#25973A" />
<rect x="66" y="23" width="1" height="1" fill="#9FC1A5" />
<rect x="67" y="23" width="1" height="1" fill="#9FC1A5" />
<rect x="68" y="23" width="1" height="1" fill="#9FC1A5" />
<rect x="69" y="23" width="1" height="1" fill="#25973A" />
<rect x="70" y="23" width="1" height="1" fill="#25973A" />
<rect x="72" y="23" width="1" height="1" fill="#25973A" />
<rect x="73" y="23" width="1" height="1" fill="#25973A" />
<rect x="74" y="23" width="1" height="1" fill="#9FC1A5" />
<rect x="75" y="23" width="1" height="1" fill="#9FC1A5" />
<rect x="76" y="23" width="1" height="1" fill="#25973A" />
<rect x="77" y="23" width="1" height="1" fill="#25973A" />
<rect x="78" y="23" width="1" height="1" fill="#9FC1A5" />
<rect x="79" y="23" width="1" height="1" fill="#9FC1A5" />
<rect x="80" y="23" width="1" height="1" fill="#25973A" />
<rect x="82" y="23" width="1" height="1" fill="#25973A" />
<rect x="83" y="23" width="1" height="1" fill="#25973A" />
<rect x="84" y="23" width="1" height="1" fill="#9FC1A5" />
<rect x="85" y="23" width="1" height="1" fill="#9FC1A5" />
<rect x="86" y="23" width="1" height="1" fill="#25973A" />
<rect x="87" y="23" width="1" height="1" fill="#25973A" />
<rect x="88" y="23" width="1" height="1" fill="#9FC1A5" />
<rect x="89" y="23" width="1" height="1" fill="#9FC1A5" />
<rect x="90" y="23" width="1" height="1" fill="#25973A" />
<rect x="4" y="24" width="1" height="1" fill="#25973A" />
<rect x="5" y="24" width="1" height="1" fill="#25973A" />
<rect x="6" y="24" width="1" height="1" fill="#9FC1A5" />
<rect x="7" y="24" width="1" height="1" fill="#9FC1A5" />
<rect x="8" y="24" width="1" height="1" fill="#9FC1A5" />
<rect x="9" y="24" width="1" height="1" fill="#9FC1A5" />
<rect x="10" y="24" width="1" height="1" fill="#9FC1A5" />
<rect x="11" y="24" width="1" height="1" fill="#9FC1A5" />
<rect x="12" y="24" width="1" height="1" fill="#25973A" />
<rect x="14" y="24" width="1" height="1" fill="#25973A" />
<rect x="15" y="24" width="1" height="1" fill="#25973A" />
<rect x="16" y="24" width="1" height="1" fill="#9FC1A5" />
<rect x="17" y="24" width="1" height="1" fill="#9FC1A5" />
<rect x="18" y="24" width="1" height="1" fill="#25973A" />
<rect x="19" y="24" width="1" height="1" fill="#9FC1A5" />
<rect x="20" y="24" width="1" height="1" fill="#9FC1A5" />
<rect x="21" y="24" width="1" height="1" fill="#25973A" />
<rect x="23" y="24" width="1" height="1" fill="#25973A" />
<rect x="24" y="24" width="1" height="1" fill="#25973A" />
<rect x="25" y="24" width="1" height="1" fill="#9FC1A5" />
<rect x="26" y="24" width="1" height="1" fill="#9FC1A5" />
<rect x="27" y="24" width="1" height="1" fill="#25973A" />
<rect x="28" y="24" width="1" height="1" fill="#25973A" />
<rect x="29" y="24" width="1" height="1" fill="#9FC1A5" />
<rect x="30" y="24" width="1" height="1" fill="#9FC1A5" />
<rect x="31" y="24" width="1" height="1" fill="#25973A" />
<rect x="33" y="24" width="1" height="1" fill="#25973A" />
<rect x="34" y="24" width="1" height="1" fill="#25973A" />
<rect x="35" y="24" width="1" height="1" fill="#9FC1A5" />
<rect x="36" y="24" width="1" height="1" fill="#9FC1A5" />
<rect x="37" y="24" width="1" height="1" fill="#25973A" />
<rect x="43" y="24" width="1" height="1" fill="#25973A" />
<rect x="44" y="24" width="1" height="1" fill="#25973A" />
<rect x="45" y="24" width="1" height="1" fill="#9FC1A5" />
<rect x="46" y="24" width="1" height="1" fill="#9FC1A5" />
<rect x="47" y="24" width="1" height="1" fill="#25973A" />
<rect x="48" y="24" width="1" height="1" fill="#25973A" />
<rect x="49" y="24" width="1" height="1" fill="#9FC1A5" />
<rect x="50" y="24" width="1" height="1" fill="#9FC1A5" />
<rect x="51" y="24" width="1" height="1" fill="#25973A" />
<rect x="55" y="24" width="1" height="1" fill="#25973A" />
<rect x="56" y="24" width="1" height="1" fill="#9FC1A5" />
<rect x="57" y="24" width="1" height="1" fill="#9FC1A5" />
<rect x="58" y="24" width="1" height="1" fill="#9FC1A5" />
<rect x="59" y="24" width="1" height="1" fill="#25973A" />
<rect x="63" y="24" width="1" height="1" fill="#25973A" />
<rect x="64" y="24" width="1" height="1" fill="#25973A" />
<rect x="65" y="24" width="1" height="1" fill="#25973A" />
<rect x="66" y="24" width="1" height="1" fill="#9FC1A5" />
<rect x="67" y="24" width="1" height="1" fill="#9FC1A5" />
<rect x="68" y="24" width="1" height="1" fill="#9FC1A5" />
<rect x="69" y="24" width="1" height="1" fill="#25973A" />
<rect x="72" y="24" width="1" height="1" fill="#25973A" />
<rect x="73" y="24" width="1" height="1" fill="#25973A" />
<rect x="74" y="24" width="1" height="1" fill="#9FC1A5" />
<rect x="75" y="24" width="1" height="1" fill="#9FC1A5" />
<rect x="76" y="24" width="1" height="1" fill="#25973A" />
<rect x="77" y="24" width="1" height="1" fill="#25973A" />
<rect x="78" y="24" width="1" height="1" fill="#9FC1A5" />
<rect x="79" y="24" width="1" height="1" fill="#9FC1A5" />
<rect x="80" y="24" width="1" height="1" fill="#25973A" />
<rect x="82" y="24" width="1" height="1" fill="#25973A" />
<rect x="83" y="24" width="1" height="1" fill="#25973A" />
<rect x="84" y="24" width="1" height="1" fill="#9FC1A5" />
<rect x="85" y="24" width="1" height="1" fill="#9FC1A5" />
<rect x="86" y="24" width="1" height="1" fill="#25973A" />
<rect x="87" y="24" width="1" height="1" fill="#25973A" />
<rect x="88" y="24" width="1" height="1" fill="#9FC1A5" />
<rect x="89" y="24" width="1" height="1" fill="#9FC1A5" />
<rect x="90" y="24" width="1" height="1" fill="#25973A" />
<rect x="4" y="25" width="1" height="1" fill="#25973A" />
<rect x="5" y="25" width="1" height="1" fill="#25973A" />
<rect x="6" y="25" width="1" height="1" fill="#9FC1A5" />
<rect x="7" y="25" width="1" height="1" fill="#9FC1A5" />
<rect x="8" y="25" width="1" height="1" fill="#25973A" />
<rect x="9" y="25" width="1" height="1" fill="#25973A" />
<rect x="10" y="25" width="1" height="1" fill="#25973A" />
<rect x="11" y="25" width="1" height="1" fill="#25973A" />
<rect x="12" y="25" width="1" height="1" fill="#25973A" />
<rect x="14" y="25" width="1" height="1" fill="#25973A" />
<rect x="15" y="25" width="1" height="1" fill="#25973A" />
<rect x="16" y="25" width="1" height="1" fill="#9FC1A5" />
<rect x="17" y="25" width="1" height="1" fill="#9FC1A5" />
<rect x="18" y="25" width="1" height="1" fill="#25973A" />
<rect x="19" y="25" width="1" height="1" fill="#9FC1A5" />
<rect x="20" y="25" width="1" height="1" fill="#9FC1A5" />
<rect x="21" y="25" width="1" height="1" fill="#25973A" />
<rect x="23" y="25" width="1" height="1" fill="#25973A" />
<rect x="24" y="25" width="1" height="1" fill="#25973A" />
<rect x="25" y="25" width="1" height="1" fill="#9FC1A5" />
<rect x="26" y="25" width="1" height="1" fill="#9FC1A5" />
<rect x="27" y="25" width="1" height="1" fill="#25973A" />
<rect x="28" y="25" width="1" height="1" fill="#25973A" />
<rect x="29" y="25" width="1" height="1" fill="#9FC1A5" />
<rect x="30" y="25" width="1" height="1" fill="#9FC1A5" />
<rect x="31" y="25" width="1" height="1" fill="#25973A" />
<rect x="33" y="25" width="1" height="1" fill="#25973A" />
<rect x="34" y="25" width="1" height="1" fill="#25973A" />
<rect x="35" y="25" width="1" height="1" fill="#9FC1A5" />
<rect x="36" y="25" width="1" height="1" fill="#9FC1A5" />
<rect x="37" y="25" width="1" height="1" fill="#25973A" />
<rect x="38" y="25" width="1" height="1" fill="#25973A" />
<rect x="39" y="25" width="1" height="1" fill="#25973A" />
<rect x="40" y="25" width="1" height="1" fill="#25973A" />
<rect x="43" y="25" width="1" height="1" fill="#25973A" />
<rect x="44" y="25" width="1" height="1" fill="#25973A" />
<rect x="45" y="25" width="1" height="1" fill="#9FC1A5" />
<rect x="46" y="25" width="1" height="1" fill="#9FC1A5" />
<rect x="47" y="25" width="1" height="1" fill="#9FC1A5" />
<rect x="48" y="25" width="1" height="1" fill="#9FC1A5" />
<rect x="49" y="25" width="1" height="1" fill="#9FC1A5" />
<rect x="50" y="25" width="1" height="1" fill="#9FC1A5" />
<rect x="51" y="25" width="1" height="1" fill="#25973A" />
<rect x="55" y="25" width="1" height="1" fill="#25973A" />
<rect x="56" y="25" width="1" height="1" fill="#9FC1A5" />
<rect x="57" y="25" width="1" height="1" fill="#9FC1A5" />
<rect x="58" y="25" width="1" height="1" fill="#9FC1A5" />
<rect x="59" y="25" width="1" height="1" fill="#25973A" />
<rect x="62" y="25" width="1" height="1" fill="#25973A" />
<rect x="63" y="25" width="1" height="1" fill="#25973A" />
<rect x="64" y="25" width="1" height="1" fill="#25973A" />
<rect x="65" y="25" width="1" height="1" fill="#25973A" />
<rect x="66" y="25" width="1" height="1" fill="#9FC1A5" />
<rect x="67" y="25" width="1" height="1" fill="#9FC1A5" />
<rect x="68" y="25" width="1" height="1" fill="#9FC1A5" />
<rect x="69" y="25" width="1" height="1" fill="#25973A" />
<rect x="72" y="25" width="1" height="1" fill="#25973A" />
<rect x="73" y="25" width="1" height="1" fill="#25973A" />
<rect x="74" y="25" width="1" height="1" fill="#9FC1A5" />
<rect x="75" y="25" width="1" height="1" fill="#9FC1A5" />
<rect x="76" y="25" width="1" height="1" fill="#25973A" />
<rect x="77" y="25" width="1" height="1" fill="#25973A" />
<rect x="78" y="25" width="1" height="1" fill="#9FC1A5" />
<rect x="79" y="25" width="1" height="1" fill="#9FC1A5" />
<rect x="80" y="25" width="1" height="1" fill="#25973A" />
<rect x="82" y="25" width="1" height="1" fill="#25973A" />
<rect x="83" y="25" width="1" height="1" fill="#25973A" />
<rect x="84" y="25" width="1" height="1" fill="#9FC1A5" />
<rect x="85" y="25" width="1" height="1" fill="#9FC1A5" />
<rect x="86" y="25" width="1" height="1" fill="#25973A" />
<rect x="87" y="25" width="1" height="1" fill="#25973A" />
<rect x="88" y="25" width="1" height="1" fill="#9FC1A5" />
<rect x="89" y="25" width="1" height="1" fill="#9FC1A5" />
<rect x="90" y="25" width="1" height="1" fill="#25973A" />
<rect x="4" y="26" width="1" height="1" fill="#25973A" />
<rect x="5" y="26" width="1" height="1" fill="#25973A" />
<rect x="6" y="26" width="1" height="1" fill="#9FC1A5" />
<rect x="7" y="26" width="1" height="1" fill="#9FC1A5" />
<rect x="8" y="26" width="1" height="1" fill="#25973A" />
<rect x="9" y="26" width="1" height="1" fill="#25973A" />
<rect x="10" y="26" width="1" height="1" fill="#25973A" />
<rect x="11" y="26" width="1" height="1" fill="#25973A" />
<rect x="12" y="26" width="1" height="1" fill="#25973A" />
<rect x="14" y="26" width="1" height="1" fill="#25973A" />
<rect x="15" y="26" width="1" height="1" fill="#25973A" />
<rect x="16" y="26" width="1" height="1" fill="#9FC1A5" />
<rect x="17" y="26" width="1" height="1" fill="#9FC1A5" />
<rect x="18" y="26" width="1" height="1" fill="#25973A" />
<rect x="19" y="26" width="1" height="1" fill="#9FC1A5" />
<rect x="20" y="26" width="1" height="1" fill="#9FC1A5" />
<rect x="21" y="26" width="1" height="1" fill="#25973A" />
<rect x="23" y="26" width="1" height="1" fill="#25973A" />
<rect x="24" y="26" width="1" height="1" fill="#25973A" />
<rect x="25" y="26" width="1" height="1" fill="#9FC1A5" />
<rect x="26" y="26" width="1" height="1" fill="#9FC1A5" />
<rect x="27" y="26" width="1" height="1" fill="#25973A" />
<rect x="28" y="26" width="1" height="1" fill="#25973A" />
<rect x="29" y="26" width="1" height="1" fill="#9FC1A5" />
<rect x="30" y="26" width="1" height="1" fill="#9FC1A5" />
<rect x="31" y="26" width="1" height="1" fill="#25973A" />
<rect x="33" y="26" width="1" height="1" fill="#25973A" />
<rect x="34" y="26" width="1" height="1" fill="#25973A" />
<rect x="35" y="26" width="1" height="1" fill="#9FC1A5" />
<rect x="36" y="26" width="1" height="1" fill="#9FC1A5" />
<rect x="37" y="26" width="1" height="1" fill="#25973A" />
<rect x="38" y="26" width="1" height="1" fill="#25973A" />
<rect x="39" y="26" width="1" height="1" fill="#25973A" />
<rect x="40" y="26" width="1" height="1" fill="#25973A" />
<rect x="41" y="26" width="1" height="1" fill="#25973A" />
<rect x="43" y="26" width="1" height="1" fill="#25973A" />
<rect x="44" y="26" width="1" height="1" fill="#25973A" />
<rect x="45" y="26" width="1" height="1" fill="#9FC1A5" />
<rect x="46" y="26" width="1" height="1" fill="#9FC1A5" />
<rect x="47" y="26" width="1" height="1" fill="#25973A" />
<rect x="48" y="26" width="1" height="1" fill="#25973A" />
<rect x="49" y="26" width="1" height="1" fill="#9FC1A5" />
<rect x="50" y="26" width="1" height="1" fill="#9FC1A5" />
<rect x="51" y="26" width="1" height="1" fill="#25973A" />
<rect x="55" y="26" width="1" height="1" fill="#25973A" />
<rect x="56" y="26" width="1" height="1" fill="#9FC1A5" />
<rect x="57" y="26" width="1" height="1" fill="#9FC1A5" />
<rect x="58" y="26" width="1" height="1" fill="#9FC1A5" />
<rect x="59" y="26" width="1" height="1" fill="#25973A" />
<rect x="62" y="26" width="1" height="1" fill="#25973A" />
<rect x="63" y="26" width="1" height="1" fill="#25973A" />
<rect x="64" y="26" width="1" height="1" fill="#25973A" />
<rect x="65" y="26" width="1" height="1" fill="#25973A" />
<rect x="66" y="26" width="1" height="1" fill="#9FC1A5" />
<rect x="67" y="26" width="1" height="1" fill="#9FC1A5" />
<rect x="68" y="26" width="1" height="1" fill="#9FC1A5" />
<rect x="69" y="26" width="1" height="1" fill="#25973A" />
<rect x="70" y="26" width="1" height="1" fill="#25973A" />
<rect x="72" y="26" width="1" height="1" fill="#25973A" />
<rect x="73" y="26" width="1" height="1" fill="#25973A" />
<rect x="74" y="26" width="1" height="1" fill="#9FC1A5" />
<rect x="75" y="26" width="1" height="1" fill="#9FC1A5" />
<rect x="76" y="26" width="1" height="1" fill="#25973A" />
<rect x="77" y="26" width="1" height="1" fill="#25973A" />
<rect x="78" y="26" width="1" height="1" fill="#9FC1A5" />
<rect x="79" y="26" width="1" height="1" fill="#9FC1A5" />
<rect x="80" y="26" width="1" height="1" fill="#25973A" />
<rect x="82" y="26" width="1" height="1" fill="#25973A" />
<rect x="83" y="26" width="1" height="1" fill="#25973A" />
<rect x="84" y="26" width="1" height="1" fill="#9FC1A5" />
<rect x="85" y="26" width="1" height="1" fill="#9FC1A5" />
<rect x="86" y="26" width="1" height="1" fill="#25973A" />
<rect x="87" y="26" width="1" height="1" fill="#25973A" />
<rect x="88" y="26" width="1" height="1" fill="#9FC1A5" />
<rect x="89" y="26" width="1" height="1" fill="#9FC1A5" />
<rect x="90" y="26" width="1" height="1" fill="#25973A" />
<rect x="4" y="27" width="1" height="1" fill="#25973A" />
<rect x="5" y="27" width="1" height="1" fill="#25973A" />
<rect x="6" y="27" width="1" height="1" fill="#9FC1A5" />
<rect x="7" y="27" width="1" height="1" fill="#9FC1A5" />
<rect x="8" y="27" width="1" height="1" fill="#9FC1A5" />
<rect x="9" y="27" width="1" height="1" fill="#9FC1A5" />
<rect x="10" y="27" width="1" height="1" fill="#9FC1A5" />
<rect x="11" y="27" width="1" height="1" fill="#9FC1A5" />
<rect x="12" y="27" width="1" height="1" fill="#25973A" />
<rect x="14" y="27" width="1" height="1" fill="#25973A" />
<rect x="15" y="27" width="1" height="1" fill="#25973A" />
<rect x="16" y="27" width="1" height="1" fill="#9FC1A5" />
<rect x="17" y="27" width="1" height="1" fill="#9FC1A5" />
<rect x="18" y="27" width="1" height="1" fill="#9FC1A5" />
<rect x="19" y="27" width="1" height="1" fill="#9FC1A5" />
<rect x="20" y="27" width="1" height="1" fill="#25973A" />
<rect x="21" y="27" width="1" height="1" fill="#25973A" />
<rect x="23" y="27" width="1" height="1" fill="#25973A" />
<rect x="24" y="27" width="1" height="1" fill="#25973A" />
<rect x="25" y="27" width="1" height="1" fill="#25973A" />
<rect x="26" y="27" width="1" height="1" fill="#9FC1A5" />
<rect x="27" y="27" width="1" height="1" fill="#9FC1A5" />
<rect x="28" y="27" width="1" height="1" fill="#9FC1A5" />
<rect x="29" y="27" width="1" height="1" fill="#9FC1A5" />
<rect x="30" y="27" width="1" height="1" fill="#9FC1A5" />
<rect x="31" y="27" width="1" height="1" fill="#25973A" />
<rect x="33" y="27" width="1" height="1" fill="#25973A" />
<rect x="34" y="27" width="1" height="1" fill="#25973A" />
<rect x="35" y="27" width="1" height="1" fill="#9FC1A5" />
<rect x="36" y="27" width="1" height="1" fill="#9FC1A5" />
<rect x="37" y="27" width="1" height="1" fill="#9FC1A5" />
<rect x="38" y="27" width="1" height="1" fill="#9FC1A5" />
<rect x="39" y="27" width="1" height="1" fill="#9FC1A5" />
<rect x="40" y="27" width="1" height="1" fill="#9FC1A5" />
<rect x="41" y="27" width="1" height="1" fill="#25973A" />
<rect x="43" y="27" width="1" height="1" fill="#25973A" />
<rect x="44" y="27" width="1" height="1" fill="#25973A" />
<rect x="45" y="27" width="1" height="1" fill="#9FC1A5" />
<rect x="46" y="27" width="1" height="1" fill="#9FC1A5" />
<rect x="47" y="27" width="1" height="1" fill="#25973A" />
<rect x="48" y="27" width="1" height="1" fill="#25973A" />
<rect x="49" y="27" width="1" height="1" fill="#9FC1A5" />
<rect x="50" y="27" width="1" height="1" fill="#9FC1A5" />
<rect x="51" y="27" width="1" height="1" fill="#25973A" />
<rect x="55" y="27" width="1" height="1" fill="#25973A" />
<rect x="56" y="27" width="1" height="1" fill="#9FC1A5" />
<rect x="57" y="27" width="1" height="1" fill="#9FC1A5" />
<rect x="58" y="27" width="1" height="1" fill="#9FC1A5" />
<rect x="59" y="27" width="1" height="1" fill="#25973A" />
<rect x="62" y="27" width="1" height="1" fill="#25973A" />
<rect x="63" y="27" width="1" height="1" fill="#25973A" />
<rect x="64" y="27" width="1" height="1" fill="#9FC1A5" />
<rect x="65" y="27" width="1" height="1" fill="#9FC1A5" />
<rect x="66" y="27" width="1" height="1" fill="#9FC1A5" />
<rect x="67" y="27" width="1" height="1" fill="#9FC1A5" />
<rect x="68" y="27" width="1" height="1" fill="#9FC1A5" />
<rect x="69" y="27" width="1" height="1" fill="#9FC1A5" />
<rect x="70" y="27" width="1" height="1" fill="#25973A" />
<rect x="72" y="27" width="1" height="1" fill="#25973A" />
<rect x="73" y="27" width="1" height="1" fill="#25973A" />
<rect x="74" y="27" width="1" height="1" fill="#9FC1A5" />
<rect x="75" y="27" width="1" height="1" fill="#9FC1A5" />
<rect x="76" y="27" width="1" height="1" fill="#9FC1A5" />
<rect x="77" y="27" width="1" height="1" fill="#9FC1A5" />
<rect x="78" y="27" width="1" height="1" fill="#9FC1A5" />
<rect x="79" y="27" width="1" height="1" fill="#9FC1A5" />
<rect x="80" y="27" width="1" height="1" fill="#25973A" />
<rect x="82" y="27" width="1" height="1" fill="#25973A" />
<rect x="83" y="27" width="1" height="1" fill="#25973A" />
<rect x="84" y="27" width="1" height="1" fill="#9FC1A5" />
<rect x="85" y="27" width="1" height="1" fill="#9FC1A5" />
<rect x="86" y="27" width="1" height="1" fill="#25973A" />
<rect x="87" y="27" width="1" height="1" fill="#25973A" />
<rect x="88" y="27" width="1" height="1" fill="#9FC1A5" />
<rect x="89" y="27" width="1" height="1" fill="#9FC1A5" />
<rect x="90" y="27" width="1" height="1" fill="#25973A" />
<rect x="5" y="28" width="1" height="1" fill="#25973A" />
<rect x="6" y="28" width="1" height="1" fill="#25973A" />
<rect x="7" y="28" width="1" height="1" fill="#25973A" />
<rect x="8" y="28" width="1" height="1" fill="#25973A" />
<rect x="9" y="28" width="1" height="1" fill="#25973A" />
<rect x="10" y="28" width="1" height="1" fill="#25973A" />
<rect x="11" y="28" width="1" height="1" fill="#25973A" />
<rect x="12" y="28" width="1" height="1" fill="#25973A" />
<rect x="15" y="28" width="1" height="1" fill="#25973A" />
<rect x="16" y="28" width="1" height="1" fill="#25973A" />
<rect x="17" y="28" width="1" height="1" fill="#25973A" />
<rect x="18" y="28" width="1" height="1" fill="#25973A" />
<rect x="19" y="28" width="1" height="1" fill="#25973A" />
<rect x="20" y="28" width="1" height="1" fill="#25973A" />
<rect x="25" y="28" width="1" height="1" fill="#25973A" />
<rect x="26" y="28" width="1" height="1" fill="#25973A" />
<rect x="27" y="28" width="1" height="1" fill="#25973A" />
<rect x="28" y="28" width="1" height="1" fill="#25973A" />
<rect x="29" y="28" width="1" height="1" fill="#25973A" />
<rect x="30" y="28" width="1" height="1" fill="#25973A" />
<rect x="31" y="28" width="1" height="1" fill="#25973A" />
<rect x="34" y="28" width="1" height="1" fill="#25973A" />
<rect x="35" y="28" width="1" height="1" fill="#25973A" />
<rect x="36" y="28" width="1" height="1" fill="#25973A" />
<rect x="37" y="28" width="1" height="1" fill="#25973A" />
<rect x="38" y="28" width="1" height="1" fill="#25973A" />
<rect x="39" y="28" width="1" height="1" fill="#25973A" />
<rect x="40" y="28" width="1" height="1" fill="#25973A" />
<rect x="41" y="28" width="1" height="1" fill="#25973A" />
<rect x="44" y="28" width="1" height="1" fill="#25973A" />
<rect x="45" y="28" width="1" height="1" fill="#25973A" />
<rect x="46" y="28" width="1" height="1" fill="#25973A" />
<rect x="47" y="28" width="1" height="1" fill="#25973A" />
<rect x="48" y="28" width="1" height="1" fill="#25973A" />
<rect x="49" y="28" width="1" height="1" fill="#25973A" />
<rect x="50" y="28" width="1" height="1" fill="#25973A" />
<rect x="51" y="28" width="1" height="1" fill="#25973A" />
<rect x="55" y="28" width="1" height="1" fill="#25973A" />
<rect x="56" y="28" width="1" height="1" fill="#25973A" />
<rect x="57" y="28" width="1" height="1" fill="#25973A" />
<rect x="58" y="28" width="1" height="1" fill="#25973A" />
<rect x="59" y="28" width="1" height="1" fill="#25973A" />
<rect x="63" y="28" width="1" height="1" fill="#25973A" />
<rect x="64" y="28" width="1" height="1" fill="#25973A" />
<rect x="65" y="28" width="1" height="1" fill="#25973A" />
<rect x="66" y="28" width="1" height="1" fill="#25973A" />
<rect x="67" y="28" width="1" height="1" fill="#25973A" />
<rect x="68" y="28" width="1" height="1" fill="#25973A" />
<rect x="69" y="28" width="1" height="1" fill="#25973A" />
<rect x="70" y="28" width="1" height="1" fill="#25973A" />
<rect x="73" y="28" width="1" height="1" fill="#25973A" />
<rect x="74" y="28" width="1" height="1" fill="#25973A" />
<rect x="75" y="28" width="1" height="1" fill="#25973A" />
<rect x="76" y="28" width="1" height="1" fill="#25973A" />
<rect x="77" y="28" width="1" height="1" fill="#25973A" />
<rect x="78" y="28" width="1" height="1" fill="#25973A" />
<rect x="79" y="28" width="1" height="1" fill="#25973A" />
<rect x="80" y="28" width="1" height="1" fill="#25973A" />
<rect x="83" y="28" width="1" height="1" fill="#25973A" />
<rect x="84" y="28" width="1" height="1" fill="#25973A" />
<rect x="85" y="28" width="1" height="1" fill="#25973A" />
<rect x="86" y="28" width="1" height="1" fill="#25973A" />
<rect x="87" y="28" width="1" height="1" fill="#25973A" />
<rect x="88" y="28" width="1" height="1" fill="#25973A" />
<rect x="89" y="28" width="1" height="1" fill="#25973A" />
<rect x="90" y="28" width="1" height="1" fill="#25973A" />
</svg>