<?xml version="1.0" encoding="UTF-8" ?>
<svg version="1.1" width="48" height="48" xmlns="http://www.w3.org/2000/svg" shape-rendering="crispEdges">
<rect x="5" y="10" width="1" height="1" fill="#252F3E" />
<rect x="6" y="10" width="1" height="1" fill="#252F3E" />
<rect x="7" y="10" width="1" height="1" fill="#252F3E" />
<rect x="8" y="10" width="1" height="1" fill="#252F3E" />
<rect x="9" y="10" width="1" height="1" fill="#252F3E" />
<rect x="10" y="10" width="1" height="1" fill="#252F3E" />
<rect x="15" y="10" width="1" height="1" fill="#252F3E" />
<rect x="16" y="10" width="1" height="1" fill="#252F3E" />
<rect x="23" y="10" width="1" height="1" fill="#005555" opacity="0.011765" />
<rect x="24" y="10" width="1" height="1" fill="#252F3E" />
<rect x="25" y="10" width="1" height="1" fill="#252F3E" />
<rect x="32" y="10" width="1" height="1" fill="#252F3E" />
<rect x="33" y="10" width="1" height="1" fill="#252F3E" />
<rect x="38" y="10" width="1" height="1" fill="#252F3E" />
<rect x="39" y="10" width="1" height="1" fill="#252F3E" />
<rect x="40" y="10" width="1" height="1" fill="#252F3E" />
<rect x="41" y="10" width="1" height="1" fill="#252F3E" />
<rect x="42" y="10" width="1" height="1" fill="#252F3E" />
<rect x="43" y="10" width="1" height="1" fill="#252F3E" />
<rect x="3" y="11" width="1" height="1" fill="#252F3E" />
<rect x="4" y="11" width="1" height="1" fill="#252F3E" />
<rect x="5" y="11" width="1" height="1" fill="#252F3E" />
<rect x="6" y="11" width="1" height="1" fill="#252F3E" />
<rect x="7" y="11" width="1" height="1" fill="#252F3E" />
<rect x="8" y="11" width="1" height="1" fill="#252F3E" />
<rect x="9" y="11" width="1" height="1" fill="#252F3E" />
<rect x="10" y="11" width="1" height="1" fill="#252F3E" />
<rect x="11" y="11" width="1" height="1" fill="#252F3E" />
<rect x="15" y="11" width="1" height="1" fill="#252F3E" />
<rect x="16" y="11" width="1" height="1" fill="#252F3E" />
<rect x="17" y="11" width="1" height="1" fill="#252F3E" />
<rect x="23" y="11" width="1" height="1" fill="#252F3E" />
<rect x="24" y="11" width="1" height="1" fill="#252F3E" />
<rect x="25" y="11" width="1" height="1" fill="#252F3E" />
<rect x="31" y="11" width="1" height="1" fill="#252F3E" />
<rect x="32" y="11" width="1" height="1" fill="#252F3E" />
<rect x="33" y="11" width="1" height="1" fill="#252F3E" />
<rect x="37" y="11" width="1" height="1" fill="#252F3E" />
<rect x="38" y="11" width="1" height="1" fill="#252F3E" />
<rect x="39" y="11" width="1" height="1" fill="#252F3E" />
<rect x="40" y="11" width="1" height="1" fill="#252F3E" />
<rect x="41" y="11" width="1" height="1" fill="#252F3E" />
<rect x="42" y="11" width="1" height="1" fill="#252F3E" />
<rect x="43" y="11" width="1" height="1" fill="#252F3E" />
<rect x="44" y="11" width="1" height="1" fill="#252F3E" />
<rect x="3" y="12" width="1" height="1" fill="#252F3E" />
<rect x="4" y="12" width="1" height="1" fill="#252F3E" />
<rect x="5" y="12" width="1" height="1" fill="#252F3E" />
<rect x="9" y="12" width="1" height="1" fill="#252F3E" />
<rect x="10" y="12" width="1" height="1" fill="#252F3E" />
<rect x="11" y="12" width="1" height="1" fill="#252F3E" />
<rect x="12" y="12" width="1" height="1" fill="#252F3E" />
<rect x="15" y="12" width="1" height="1" fill="#252F3E" />
<rect x="16" y="12" width="1" height="1" fill="#252F3E" />
<rect x="17" y="12" width="1" height="1" fill="#252F3E" />
<rect x="23" y="12" width="1" height="1" fill="#252F3E" />
<rect x="24" y="12" width="1" height="1" fill="#252F3E" />
<rect x="25" y="12" width="1" height="1" fill="#252F3E" />
<rect x="26" y="12" width="1" height="1" fill="#252F3E" />
<rect x="31" y="12" width="1" height="1" fill="#252F3E" />
<rect x="32" y="12" width="1" height="1" fill="#252F3E" />
<rect x="33" y="12" width="1" height="1" fill="#252F3E" />
<rect x="36" y="12" width="1" height="1" fill="#252F3E" />
<rect x="37" y="12" width="1" height="1" fill="#252F3E" />
<rect x="38" y="12" width="1" height="1" fill="#252F3E" />
<rect x="43" y="12" width="1" height="1" fill="#252F3E" />
<rect x="44" y="12" width="1" height="1" fill="#252F3E" />
<rect x="11" y="13" width="1" height="1" fill="#252F3E" />
<rect x="12" y="13" width="1" height="1" fill="#252F3E" />
<rect x="16" y="13" width="1" height="1" fill="#252F3E" />
<rect x="17" y="13" width="1" height="1" fill="#252F3E" />
<rect x="23" y="13" width="1" height="1" fill="#252F3E" />
<rect x="24" y="13" width="1" height="1" fill="#252F3E" />
<rect x="25" y="13" width="1" height="1" fill="#252F3E" />
<rect x="26" y="13" width="1" height="1" fill="#252F3E" />
<rect x="31" y="13" width="1" height="1" fill="#252F3E" />
<rect x="32" y="13" width="1" height="1" fill="#252F3E" />
<rect x="33" y="13" width="1" height="1" fill="#252F3E" />
<rect x="36" y="13" width="1" height="1" fill="#252F3E" />
<rect x="37" y="13" width="1" height="1" fill="#252F3E" />
<rect x="11" y="14" width="1" height="1" fill="#252F3E" />
<rect x="12" y="14" width="1" height="1" fill="#252F3E" />
<rect x="16" y="14" width="1" height="1" fill="#252F3E" />
<rect x="17" y="14" width="1" height="1" fill="#252F3E" />
<rect x="18" y="14" width="1" height="1" fill="#252F3E" />
<rect x="22" y="14" width="1" height="1" fill="#252F3E" />
<rect x="23" y="14" width="1" height="1" fill="#252F3E" />
<rect x="25" y="14" width="1" height="1" fill="#252F3E" />
<rect x="26" y="14" width="1" height="1" fill="#252F3E" />
<rect x="31" y="14" width="1" height="1" fill="#252F3E" />
<rect x="32" y="14" width="1" height="1" fill="#252F3E" />
<rect x="36" y="14" width="1" height="1" fill="#252F3E" />
<rect x="37" y="14" width="1" height="1" fill="#252F3E" />
<rect x="11" y="15" width="1" height="1" fill="#252F3E" />
<rect x="12" y="15" width="1" height="1" fill="#252F3E" />
<rect x="16" y="15" width="1" height="1" fill="#252F3E" />
<rect x="17" y="15" width="1" height="1" fill="#252F3E" />
<rect x="18" y="15" width="1" height="1" fill="#252F3E" />
<rect x="22" y="15" width="1" height="1" fill="#252F3E" />
<rect x="23" y="15" width="1" height="1" fill="#252F3E" />
<rect x="25" y="15" width="1" height="1" fill="#252F3E" />
<rect x="26" y="15" width="1" height="1" fill="#252F3E" />
<rect x="30" y="15" width="1" height="1" fill="#252F3E" />
<rect x="31" y="15" width="1" height="1" fill="#252F3E" />
<rect x="32" y="15" width="1" height="1" fill="#252F3E" />
<rect x="36" y="15" width="1" height="1" fill="#252F3E" />
<rect x="37" y="15" width="1" height="1" fill="#252F3E" />
<rect x="38" y="15" width="1" height="1" fill="#252F3E" />
<rect x="5" y="16" width="1" height="1" fill="#252F3E" />
<rect x="6" y="16" width="1" height="1" fill="#252F3E" />
<rect x="7" y="16" width="1" height="1" fill="#252F3E" />
<rect x="8" y="16" width="1" height="1" fill="#252F3E" />
<rect x="9" y="16" width="1" height="1" fill="#252F3E" />
<rect x="11" y="16" width="1" height="1" fill="#252F3E" />
<rect x="12" y="16" width="1" height="1" fill="#252F3E" />
<rect x="17" y="16" width="1" height="1" fill="#252F3E" />
<rect x="18" y="16" width="1" height="1" fill="#252F3E" />
<rect x="22" y="16" width="1" height="1" fill="#252F3E" />
<rect x="23" y="16" width="1" height="1" fill="#252F3E" />
<rect x="25" y="16" width="1" height="1" fill="#252F3E" />
<rect x="26" y="16" width="1" height="1" fill="#252F3E" />
<rect x="27" y="16" width="1" height="1" fill="#000000" opacity="0.003922" />
<rect x="30" y="16" width="1" height="1" fill="#252F3E" />
<rect x="31" y="16" width="1" height="1" fill="#252F3E" />
<rect x="32" y="16" width="1" height="1" fill="#252F3E" />
<rect x="36" y="16" width="1" height="1" fill="#252F3E" />
<rect x="37" y="16" width="1" height="1" fill="#252F3E" />
<rect x="38" y="16" width="1" height="1" fill="#252F3E" />
<rect x="39" y="16" width="1" height="1" fill="#252F3E" />
<rect x="40" y="16" width="1" height="1" fill="#252F3E" />
<rect x="41" y="16" width="1" height="1" fill="#252F3E" />
<rect x="3" y="17" width="1" height="1" fill="#252F3E" />
<rect x="4" y="17" width="1" height="1" fill="#252F3E" />
<rect x="5" y="17" width="1" height="1" fill="#252F3E" />
<rect x="6" y="17" width="1" height="1" fill="#252F3E" />
<rect x="7" y="17" width="1" height="1" fill="#252F3E" />
<rect x="8" y="17" width="1" height="1" fill="#252F3E" />
<rect x="9" y="17" width="1" height="1" fill="#252F3E" />
<rect x="10" y="17" width="1" height="1" fill="#252F3E" />
<rect x="11" y="17" width="1" height="1" fill="#252F3E" />
<rect x="12" y="17" width="1" height="1" fill="#252F3E" />
<rect x="17" y="17" width="1" height="1" fill="#252F3E" />
<rect x="18" y="17" width="1" height="1" fill="#252F3E" />
<rect x="22" y="17" width="1" height="1" fill="#252F3E" />
<rect x="23" y="17" width="1" height="1" fill="#252F3E" />
<rect x="26" y="17" width="1" height="1" fill="#252F3E" />
<rect x="27" y="17" width="1" height="1" fill="#252F3E" />
<rect x="30" y="17" width="1" height="1" fill="#252F3E" />
<rect x="31" y="17" width="1" height="1" fill="#252F3E" />
<rect x="37" y="17" width="1" height="1" fill="#252F3E" />
<rect x="38" y="17" width="1" height="1" fill="#252F3E" />
<rect x="39" y="17" width="1" height="1" fill="#252F3E" />
<rect x="40" y="17" width="1" height="1" fill="#252F3E" />
<rect x="41" y="17" width="1" height="1" fill="#252F3E" />
<rect x="42" y="17" width="1" height="1" fill="#252F3E" />
<rect x="43" y="17" width="1" height="1" fill="#252F3E" />
<rect x="3" y="18" width="1" height="1" fill="#252F3E" />
<rect x="4" y="18" width="1" height="1" fill="#252F3E" />
<rect x="5" y="18" width="1" height="1" fill="#252F3E" />
<rect x="11" y="18" width="1" height="1" fill="#252F3E" />
<rect x="12" y="18" width="1" height="1" fill="#252F3E" />
<rect x="17" y="18" width="1" height="1" fill="#252F3E" />
<rect x="18" y="18" width="1" height="1" fill="#252F3E" />
<rect x="19" y="18" width="1" height="1" fill="#252F3E" />
<rect x="21" y="18" width="1" height="1" fill="#252F3E" />
<rect x="22" y="18" width="1" height="1" fill="#252F3E" />
<rect x="26" y="18" width="1" height="1" fill="#252F3E" />
<rect x="27" y="18" width="1" height="1" fill="#252F3E" />
<rect x="30" y="18" width="1" height="1" fill="#252F3E" />
<rect x="31" y="18" width="1" height="1" fill="#252F3E" />
<rect x="40" y="18" width="1" height="1" fill="#252F3E" />
<rect x="41" y="18" width="1" height="1" fill="#252F3E" />
<rect x="42" y="18" width="1" height="1" fill="#252F3E" />
<rect x="43" y="18" width="1" height="1" fill="#252F3E" />
<rect x="44" y="18" width="1" height="1" fill="#252F3E" />
<rect x="2" y="19" width="1" height="1" fill="#252F3E" />
<rect x="3" y="19" width="1" height="1" fill="#252F3E" />
<rect x="4" y="19" width="1" height="1" fill="#252F3E" />
<rect x="11" y="19" width="1" height="1" fill="#252F3E" />
<rect x="12" y="19" width="1" height="1" fill="#252F3E" />
<rect x="18" y="19" width="1" height="1" fill="#252F3E" />
<rect x="19" y="19" width="1" height="1" fill="#252F3E" />
<rect x="21" y="19" width="1" height="1" fill="#252F3E" />
<rect x="22" y="19" width="1" height="1" fill="#252F3E" />
<rect x="26" y="19" width="1" height="1" fill="#252F3E" />
<rect x="27" y="19" width="1" height="1" fill="#252F3E" />
<rect x="29" y="19" width="1" height="1" fill="#252F3E" />
<rect x="30" y="19" width="1" height="1" fill="#252F3E" />
<rect x="31" y="19" width="1" height="1" fill="#252F3E" />
<rect x="43" y="19" width="1" height="1" fill="#252F3E" />
<rect x="44" y="19" width="1" height="1" fill="#252F3E" />
<rect x="45" y="19" width="1" height="1" fill="#252F3E" />
<rect x="2" y="20" width="1" height="1" fill="#252F3E" />
<rect x="3" y="20" width="1" height="1" fill="#252F3E" />
<rect x="4" y="20" width="1" height="1" fill="#252F3E" />
<rect x="11" y="20" width="1" height="1" fill="#252F3E" />
<rect x="12" y="20" width="1" height="1" fill="#252F3E" />
<rect x="18" y="20" width="1" height="1" fill="#252F3E" />
<rect x="19" y="20" width="1" height="1" fill="#252F3E" />
<rect x="21" y="20" width="1" height="1" fill="#252F3E" />
<rect x="22" y="20" width="1" height="1" fill="#252F3E" />
<rect x="26" y="20" width="1" height="1" fill="#252F3E" />
<rect x="27" y="20" width="1" height="1" fill="#252F3E" />
<rect x="29" y="20" width="1" height="1" fill="#252F3E" />
<rect x="30" y="20" width="1" height="1" fill="#252F3E" />
<rect x="43" y="20" width="1" height="1" fill="#252F3E" />
<rect x="44" y="20" width="1" height="1" fill="#252F3E" />
<rect x="45" y="20" width="1" height="1" fill="#252F3E" />
<rect x="2" y="21" width="1" height="1" fill="#252F3E" />
<rect x="3" y="21" width="1" height="1" fill="#252F3E" />
<rect x="4" y="21" width="1" height="1" fill="#252F3E" />
<rect x="10" y="21" width="1" height="1" fill="#252F3E" />
<rect x="11" y="21" width="1" height="1" fill="#252F3E" />
<rect x="12" y="21" width="1" height="1" fill="#252F3E" />
<rect x="13" y="21" width="1" height="1" fill="#252F3E" />
<rect x="18" y="21" width="1" height="1" fill="#252F3E" />
<rect x="19" y="21" width="1" height="1" fill="#252F3E" />
<rect x="21" y="21" width="1" height="1" fill="#252F3E" />
<rect x="22" y="21" width="1" height="1" fill="#252F3E" />
<rect x="27" y="21" width="1" height="1" fill="#252F3E" />
<rect x="28" y="21" width="1" height="1" fill="#252F3E" />
<rect x="29" y="21" width="1" height="1" fill="#252F3E" />
<rect x="30" y="21" width="1" height="1" fill="#252F3E" />
<rect x="43" y="21" width="1" height="1" fill="#252F3E" />
<rect x="44" y="21" width="1" height="1" fill="#252F3E" />
<rect x="45" y="21" width="1" height="1" fill="#252F3E" />
<rect x="2" y="22" width="1" height="1" fill="#252F3E" />
<rect x="3" y="22" width="1" height="1" fill="#252F3E" />
<rect x="4" y="22" width="1" height="1" fill="#252F3E" />
<rect x="9" y="22" width="1" height="1" fill="#252F3E" />
<rect x="10" y="22" width="1" height="1" fill="#252F3E" />
<rect x="11" y="22" width="1" height="1" fill="#252F3E" />
<rect x="12" y="22" width="1" height="1" fill="#252F3E" />
<rect x="13" y="22" width="1" height="1" fill="#252F3E" />
<rect x="18" y="22" width="1" height="1" fill="#252F3E" />
<rect x="19" y="22" width="1" height="1" fill="#252F3E" />
<rect x="20" y="22" width="1" height="1" fill="#252F3E" />
<rect x="21" y="22" width="1" height="1" fill="#252F3E" />
<rect x="22" y="22" width="1" height="1" fill="#252F3E" />
<rect x="27" y="22" width="1" height="1" fill="#252F3E" />
<rect x="28" y="22" width="1" height="1" fill="#252F3E" />
<rect x="29" y="22" width="1" height="1" fill="#252F3E" />
<rect x="30" y="22" width="1" height="1" fill="#252F3E" />
<rect x="36" y="22" width="1" height="1" fill="#252F3E" />
<rect x="42" y="22" width="1" height="1" fill="#252F3E" />
<rect x="43" y="22" width="1" height="1" fill="#252F3E" />
<rect x="44" y="22" width="1" height="1" fill="#252F3E" />
<rect x="45" y="22" width="1" height="1" fill="#252F3E" />
<rect x="3" y="23" width="1" height="1" fill="#252F3E" />
<rect x="4" y="23" width="1" height="1" fill="#252F3E" />
<rect x="5" y="23" width="1" height="1" fill="#252F3E" />
<rect x="6" y="23" width="1" height="1" fill="#252F3E" />
<rect x="7" y="23" width="1" height="1" fill="#252F3E" />
<rect x="8" y="23" width="1" height="1" fill="#252F3E" />
<rect x="9" y="23" width="1" height="1" fill="#252F3E" />
<rect x="11" y="23" width="1" height="1" fill="#252F3E" />
<rect x="12" y="23" width="1" height="1" fill="#252F3E" />
<rect x="13" y="23" width="1" height="1" fill="#252F3E" />
<rect x="19" y="23" width="1" height="1" fill="#252F3E" />
<rect x="20" y="23" width="1" height="1" fill="#252F3E" />
<rect x="21" y="23" width="1" height="1" fill="#252F3E" />
<rect x="27" y="23" width="1" height="1" fill="#252F3E" />
<rect x="28" y="23" width="1" height="1" fill="#252F3E" />
<rect x="29" y="23" width="1" height="1" fill="#252F3E" />
<rect x="30" y="23" width="1" height="1" fill="#252F3E" />
<rect x="36" y="23" width="1" height="1" fill="#252F3E" />
<rect x="37" y="23" width="1" height="1" fill="#252F3E" />
<rect x="38" y="23" width="1" height="1" fill="#252F3E" />
<rect x="39" y="23" width="1" height="1" fill="#252F3E" />
<rect x="40" y="23" width="1" height="1" fill="#252F3E" />
<rect x="41" y="23" width="1" height="1" fill="#252F3E" />
<rect x="42" y="23" width="1" height="1" fill="#252F3E" />
<rect x="43" y="23" width="1" height="1" fill="#252F3E" />
<rect x="44" y="23" width="1" height="1" fill="#252F3E" />
<rect x="4" y="24" width="1" height="1" fill="#252F3E" />
<rect x="5" y="24" width="1" height="1" fill="#252F3E" />
<rect x="6" y="24" width="1" height="1" fill="#252F3E" />
<rect x="7" y="24" width="1" height="1" fill="#252F3E" />
<rect x="8" y="24" width="1" height="1" fill="#252F3E" />
<rect x="12" y="24" width="1" height="1" fill="#252F3E" />
<rect x="19" y="24" width="1" height="1" fill="#252F3E" />
<rect x="20" y="24" width="1" height="1" fill="#252F3E" />
<rect x="21" y="24" width="1" height="1" fill="#252F3E" />
<rect x="27" y="24" width="1" height="1" fill="#252F3E" />
<rect x="28" y="24" width="1" height="1" fill="#252F3E" />
<rect x="29" y="24" width="1" height="1" fill="#252F3E" />
<rect x="37" y="24" width="1" height="1" fill="#252F3E" />
<rect x="38" y="24" width="1" height="1" fill="#252F3E" />
<rect x="39" y="24" width="1" height="1" fill="#252F3E" />
<rect x="40" y="24" width="1" height="1" fill="#252F3E" />
<rect x="41" y="24" width="1" height="1" fill="#252F3E" />
<rect x="42" y="24" width="1" height="1" fill="#252F3E" />
<rect x="42" y="28" width="1" height="1" fill="#FF9900" />
<rect x="43" y="28" width="1" height="1" fill="#FF9900" />
<rect x="44" y="28" width="1" height="1" fill="#FF9900" />
<rect x="45" y="28" width="1" height="1" fill="#FF9900" />
<rect x="46" y="28" width="1" height="1" fill="#FF9900" />
<rect x="0" y="29" width="1" height="1" fill="#FF9900" />
<rect x="39" y="29" width="1" height="1" fill="#FF9900" />
<rect x="40" y="29" width="1" height="1" fill="#FF9900" />
<rect x="41" y="29" width="1" height="1" fill="#FF9900" />
<rect x="42" y="29" width="1" height="1" fill="#FF9900" />
<rect x="43" y="29" width="1" height="1" fill="#FF9900" />
<rect x="44" y="29" width="1" height="1" fill="#FF9900" />
<rect x="45" y="29" width="1" height="1" fill="#FF9900" />
<rect x="46" y="29" width="1" height="1" fill="#FF9900" />
<rect x="47" y="29" width="1" height="1" fill="#FF9900" />
<rect x="1" y="30" width="1" height="1" fill="#FF9900" />
<rect x="2" y="30" width="1" height="1" fill="#FF9900" />
<rect x="46" y="30" width="1" height="1" fill="#FF9900" />
<rect x="47" y="30" width="1" height="1" fill="#FF9900" />
<rect x="2" y="31" width="1" height="1" fill="#FF9900" />
<rect x="3" y="31" width="1" height="1" fill="#FF9900" />
<rect x="4" y="31" width="1" height="1" fill="#FF9900" />
<rect x="46" y="31" width="1" height="1" fill="#FF9900" />
<rect x="47" y="31" width="1" height="1" fill="#FF9900" />
<rect x="3" y="32" width="1" height="1" fill="#FF9900" opacity="0.929412" />
<rect x="4" y="32" width="1" height="1" fill="#FF9900" />
<rect x="5" y="32" width="1" height="1" fill="#FF9900" />
<rect x="6" y="32" width="1" height="1" fill="#FF9900" />
<rect x="7" y="32" width="1" height="1" fill="#FF9900" />
<rect x="41" y="32" width="1" height="1" fill="#FF9900" />
<rect x="42" y="32" width="1" height="1" fill="#FF9900" />
<rect x="43" y="32" width="1" height="1" fill="#FF9900" />
<rect x="46" y="32" width="1" height="1" fill="#FF9900" />
<rect x="5" y="33" width="1" height="1" fill="#FF9900" />
<rect x="6" y="33" width="1" height="1" fill="#FF9900" />
<rect x="7" y="33" width="1" height="1" fill="#FF9900" />
<rect x="8" y="33" width="1" height="1" fill="#FF9900" />
<rect x="9" y="33" width="1" height="1" fill="#FF9900" />
<rect x="10" y="33" width="1" height="1" fill="#FF9900" />
<rect x="38" y="33" width="1" height="1" fill="#FF9900" />
<rect x="39" y="33" width="1" height="1" fill="#FF9900" />
<rect x="40" y="33" width="1" height="1" fill="#FF9900" />
<rect x="41" y="33" width="1" height="1" fill="#FF9900" />
<rect x="42" y="33" width="1" height="1" fill="#FF9900" />
<rect x="45" y="33" width="1" height="1" fill="#FF9900" />
<rect x="46" y="33" width="1" height="1" fill="#FF9900" />
<rect x="7" y="34" width="1" height="1" fill="#FF9900" />
<rect x="8" y="34" width="1" height="1" fill="#FF9900" />
<rect x="9" y="34" width="1" height="1" fill="#FF9900" />
<rect x="10" y="34" width="1" height="1" fill="#FF9900" />
<rect x="11" y="34" width="1" height="1" fill="#FF9900" />
<rect x="12" y="34" width="1" height="1" fill="#FF9900" />
<rect x="13" y="34" width="1" height="1" fill="#FF9900" />
<rect x="14" y="34" width="1" height="1" fill="#FF9900" />
<rect x="34" y="34" width="1" height="1" fill="#FF9900" />
<rect x="35" y="34" width="1" height="1" fill="#FF9900" />
<rect x="36" y="34" width="1" height="1" fill="#FF9900" />
<rect x="37" y="34" width="1" height="1" fill="#FF9900" />
<rect x="38" y="34" width="1" height="1" fill="#FF9900" />
<rect x="39" y="34" width="1" height="1" fill="#FF9900" />
<rect x="40" y="34" width="1" height="1" fill="#FF9900" />
<rect x="45" y="34" width="1" height="1" fill="#FF9900" />
<rect x="46" y="34" width="1" height="1" fill="#FF9900" />
<rect x="9" y="35" width="1" height="1" fill="#FF9900" />
<rect x="10" y="35" width="1" height="1" fill="#FF9900" />
<rect x="11" y="35" width="1" height="1" fill="#FF9900" />
<rect x="12" y="35" width="1" height="1" fill="#FF9900" />
<rect x="13" y="35" width="1" height="1" fill="#FF9900" />
<rect x="14" y="35" width="1" height="1" fill="#FF9900" />
<rect x="15" y="35" width="1" height="1" fill="#FF9900" />
<rect x="16" y="35" width="1" height="1" fill="#FF9900" />
<rect x="17" y="35" width="1" height="1" fill="#FF9900" />
<rect x="18" y="35" width="1" height="1" fill="#FF9900" />
<rect x="19" y="35" width="1" height="1" fill="#FF9900" />
<rect x="20" y="35" width="1" height="1" fill="#FF9900" />
<rect x="21" y="35" width="1" height="1" fill="#FF9900" />
<rect x="22" y="35" width="1" height="1" fill="#FF9900" />
<rect x="26" y="35" width="1" height="1" fill="#FF9900" />
<rect x="27" y="35" width="1" height="1" fill="#FF9900" />
<rect x="28" y="35" width="1" height="1" fill="#FF9900" />
<rect x="29" y="35" width="1" height="1" fill="#FF9900" />
<rect x="30" y="35" width="1" height="1" fill="#FF9900" />
<rect x="31" y="35" width="1" height="1" fill="#FF9900" />
<rect x="32" y="35" width="1" height="1" fill="#FF9900" />
<rect x="33" y="35" width="1" height="1" fill="#FF9900" />
<rect x="34" y="35" width="1" height="1" fill="#FF9900" />
<rect x="35" y="35" width="1" height="1" fill="#FF9900" />
<rect x="36" y="35" width="1" height="1" fill="#FF9900" />
<rect x="37" y="35" width="1" height="1" fill="#FF9900" />
<rect x="38" y="35" width="1" height="1" fill="#FF9900" />
<rect x="45" y="35" width="1" height="1" fill="#FF9900" />
<rect x="11" y="36" width="1" height="1" fill="#FF9900" />
<rect x="12" y="36" width="1" height="1" fill="#FF9900" />
<rect x="13" y="36" width="1" height="1" fill="#FF9900" />
<rect x="14" y="36" width="1" height="1" fill="#FF9900" />
<rect x="15" y="36" width="1" height="1" fill="#FF9900" />
<rect x="16" y="36" width="1" height="1" fill="#FF9900" />
<rect x="17" y="36" width="1" height="1" fill="#FF9900" />
<rect x="18" y="36" width="1" height="1" fill="#FF9900" />
<rect x="19" y="36" width="1" height="1" fill="#FF9900" />
<rect x="20" y="36" width="1" height="1" fill="#FF9900" />
<rect x="21" y="36" width="1" height="1" fill="#FF9900" />
<rect x="22" y="36" width="1" height="1" fill="#FF9900" />
<rect x="23" y="36" width="1" height="1" fill="#FF9900" />
<rect x="24" y="36" width="1" height="1" fill="#FF9900" />
<rect x="25" y="36" width="1" height="1" fill="#FF9900" />
<rect x="26" y="36" width="1" height="1" fill="#FF9900" />
<rect x="27" y="36" width="1" height="1" fill="#FF9900" />
<rect x="28" y="36" width="1" height="1" fill="#FF9900" />
<rect x="29" y="36" width="1" height="1" fill="#FF9900" />
<rect x="30" y="36" width="1" height="1" fill="#FF9900" />
<rect x="31" y="36" width="1" height="1" fill="#FF9900" />
<rect x="32" y="36" width="1" height="1" fill="#FF9900" />
<rect x="33" y="36" width="1" height="1" fill="#FF9900" />
<rect x="34" y="36" width="1" height="1" fill="#FF9900" />
<rect x="35" y="36" width="1" height="1" fill="#FF9900" />
<rect x="36" y="36" width="1" height="1" fill="#FF9900" />
<rect x="44" y="36" width="1" height="1" fill="#FF9900" />
<rect x="14" y="37" width="1" height="1" fill="#FF9900" />
<rect x="15" y="37" width="1" height="1" fill="#FF9900" />
<rect x="16" y="37" width="1" height="1" fill="#FF9900" />
<rect x="17" y="37" width="1" height="1" fill="#FF9900" />
<rect x="18" y="37" width="1" height="1" fill="#FF9900" />
<rect x="19" y="37" width="1" height="1" fill="#FF9900" />
<rect x="20" y="37" width="1" height="1" fill="#FF9900" />
<rect x="21" y="37" width="1" height="1" fill="#FF9900" />
<rect x="22" y="37" width="1" height="1" fill="#FF9900" />
<rect x="23" y="37" width="1" height="1" fill="#FF9900" />
<rect x="24" y="37" width="1" height="1" fill="#FF9900" />
<rect x="25" y="37" width="1" height="1" fill="#FF9900" />
<rect x="26" y="37" width="1" height="1" fill="#FF9900" />
<rect x="27" y="37" width="1" height="1" fill="#FF9900" />
<rect x="28" y="37" width="1" height="1" fill="#FF9900" />
<rect x="29" y="37" width="1" height="1" fill="#FF9900" />
<rect x="30" y="37" width="1" height="1" fill="#FF9900" />
<rect x="31" y="37" width="1" height="1" fill="#FF9900" />
<rect x="32" y="37" width="1" height="1" fill="#FF9900" />
<rect x="33" y="37" width="1" height="1" fill="#FF9900" />
<rect x="18" y="38" width="1" height="1" fill="#FF9900" />
<rect x="19" y="38" width="1" height="1" fill="#FF9900" />
<rect x="20" y="38" width="1" height="1" fill="#FF9900" />
<rect x="21" y="38" width="1" height="1" fill="#FF9900" />
<rect x="22" y="38" width="1" height="1" fill="#FF9900" />
<rect x="23" y="38" width="1" height="1" fill="#FF9900" />
<rect x="24" y="38" width="1" height="1" fill="#FF9900" />
<rect x="25" y="38" width="1" height="1" fill="#FF9900" />
<rect x="26" y="38" width="1" height="1" fill="#FF9900" />
<rect x="27" y="38" width="1" height="1" fill="#FF9900" />
<rect x="28" y="38" width="1" height="1" fill="#FF9900" />
<rect x="29" y="38" width="1" height="1" fill="#FF9900" />
</svg>