<?xml version="1.0" encoding="UTF-8" ?>
<svg version="1.1" width="48" height="48" xmlns="http://www.w3.org/2000/svg" shape-rendering="crispEdges">
<rect x="28" y="0" width="1" height="1" fill="#FF8020" opacity="0.031373" />
<rect x="29" y="1" width="1" height="1" fill="#F58219" />
<rect x="29" y="2" width="1" height="1" fill="#F58219" />
<rect x="29" y="3" width="1" height="1" fill="#F58219" />
<rect x="29" y="4" width="1" height="1" fill="#F58219" />
<rect x="28" y="5" width="1" height="1" fill="#F58219" />
<rect x="29" y="5" width="1" height="1" fill="#F58219" />
<rect x="28" y="6" width="1" height="1" fill="#F58219" />
<rect x="27" y="7" width="1" height="1" fill="#F58219" opacity="0.992157" />
<rect x="28" y="7" width="1" height="1" fill="#F58219" />
<rect x="26" y="8" width="1" height="1" fill="#F58219" opacity="0.952941" />
<rect x="27" y="8" width="1" height="1" fill="#F58219" opacity="0.894118" />
<rect x="25" y="9" width="1" height="1" fill="#F58219" opacity="0.960784" />
<rect x="26" y="9" width="1" height="1" fill="#F58219" />
<rect x="23" y="10" width="1" height="1" fill="#FFFF00" opacity="0.003922" />
<rect x="24" y="10" width="1" height="1" fill="#F58219" opacity="0.996078" />
<rect x="25" y="10" width="1" height="1" fill="#F58219" />
<rect x="26" y="10" width="1" height="1" fill="#F5821A" opacity="0.980392" />
<rect x="22" y="11" width="1" height="1" fill="#F58219" />
<rect x="23" y="11" width="1" height="1" fill="#F58219" />
<rect x="24" y="11" width="1" height="1" fill="#F58219" opacity="0.945098" />
<rect x="31" y="11" width="1" height="1" fill="#F58219" />
<rect x="21" y="12" width="1" height="1" fill="#F58219" opacity="0.925490" />
<rect x="22" y="12" width="1" height="1" fill="#F58219" />
<rect x="23" y="12" width="1" height="1" fill="#F58219" />
<rect x="27" y="12" width="1" height="1" fill="#FFFF00" opacity="0.003922" />
<rect x="29" y="12" width="1" height="1" fill="#F58219" />
<rect x="30" y="12" width="1" height="1" fill="#F58219" />
<rect x="31" y="12" width="1" height="1" fill="#FF8020" opacity="0.031373" />
<rect x="21" y="13" width="1" height="1" fill="#F58219" />
<rect x="22" y="13" width="1" height="1" fill="#F58219" />
<rect x="23" y="13" width="1" height="1" fill="#F58219" />
<rect x="27" y="13" width="1" height="1" fill="#F58219" />
<rect x="28" y="13" width="1" height="1" fill="#F58219" />
<rect x="29" y="13" width="1" height="1" fill="#F58219" />
<rect x="19" y="14" width="1" height="1" fill="#F58219" />
<rect x="20" y="14" width="1" height="1" fill="#F58219" />
<rect x="21" y="14" width="1" height="1" fill="#F58219" />
<rect x="26" y="14" width="1" height="1" fill="#F58219" />
<rect x="27" y="14" width="1" height="1" fill="#F58219" />
<rect x="17" y="15" width="1" height="1" fill="#FF9224" opacity="0.027451" />
<rect x="18" y="15" width="1" height="1" fill="#F58219" />
<rect x="19" y="15" width="1" height="1" fill="#F58219" />
<rect x="20" y="15" width="1" height="1" fill="#F58219" />
<rect x="25" y="15" width="1" height="1" fill="#F58219" />
<rect x="26" y="15" width="1" height="1" fill="#F58219" />
<rect x="18" y="16" width="1" height="1" fill="#F58219" />
<rect x="19" y="16" width="1" height="1" fill="#F58219" />
<rect x="20" y="16" width="1" height="1" fill="#F58219" />
<rect x="25" y="16" width="1" height="1" fill="#F58219" />
<rect x="26" y="16" width="1" height="1" fill="#F58219" />
<rect x="17" y="17" width="1" height="1" fill="#F58219" />
<rect x="18" y="17" width="1" height="1" fill="#F58219" />
<rect x="19" y="17" width="1" height="1" fill="#F58219" />
<rect x="24" y="17" width="1" height="1" fill="#F58219" />
<rect x="25" y="17" width="1" height="1" fill="#F58219" />
<rect x="26" y="17" width="1" height="1" fill="#F58219" />
<rect x="17" y="18" width="1" height="1" fill="#F58219" />
<rect x="18" y="18" width="1" height="1" fill="#F58219" />
<rect x="19" y="18" width="1" height="1" fill="#F58219" />
<rect x="24" y="18" width="1" height="1" fill="#F58219" />
<rect x="25" y="18" width="1" height="1" fill="#F58219" />
<rect x="26" y="18" width="1" height="1" fill="#F58219" />
<rect x="18" y="19" width="1" height="1" fill="#F58219" />
<rect x="19" y="19" width="1" height="1" fill="#F58219" />
<rect x="24" y="19" width="1" height="1" fill="#F58219" />
<rect x="25" y="19" width="1" height="1" fill="#F58219" />
<rect x="26" y="19" width="1" height="1" fill="#F58219" />
<rect x="19" y="20" width="1" height="1" fill="#F58219" />
<rect x="20" y="20" width="1" height="1" fill="#F58219" />
<rect x="25" y="20" width="1" height="1" fill="#F58219" />
<rect x="26" y="20" width="1" height="1" fill="#F58219" />
<rect x="27" y="20" width="1" height="1" fill="#F58219" />
<rect x="18" y="21" width="1" height="1" fill="#FF8000" opacity="0.007843" />
<rect x="19" y="21" width="1" height="1" fill="#F58219" />
<rect x="20" y="21" width="1" height="1" fill="#F58219" />
<rect x="25" y="21" width="1" height="1" fill="#F58219" />
<rect x="26" y="21" width="1" height="1" fill="#F58219" />
<rect x="27" y="21" width="1" height="1" fill="#F58219" />
<rect x="28" y="21" width="1" height="1" fill="#F58219" />
<rect x="20" y="22" width="1" height="1" fill="#F58219" />
<rect x="26" y="22" width="1" height="1" fill="#F58219" />
<rect x="27" y="22" width="1" height="1" fill="#F58219" />
<rect x="28" y="22" width="1" height="1" fill="#F58219" />
<rect x="21" y="23" width="1" height="1" fill="#F58219" />
<rect x="27" y="23" width="1" height="1" fill="#F58219" />
<rect x="28" y="23" width="1" height="1" fill="#F58219" />
<rect x="29" y="23" width="1" height="1" fill="#F58219" />
<rect x="22" y="24" width="1" height="1" fill="#F58219" />
<rect x="27" y="24" width="1" height="1" fill="#F58219" />
<rect x="28" y="24" width="1" height="1" fill="#F58219" />
<rect x="23" y="25" width="1" height="1" fill="#F58219" />
<rect x="27" y="25" width="1" height="1" fill="#F58219" />
<rect x="28" y="25" width="1" height="1" fill="#F58219" />
<rect x="13" y="26" width="1" height="1" fill="#4E7896" />
<rect x="14" y="26" width="1" height="1" fill="#4E7896" />
<rect x="15" y="26" width="1" height="1" fill="#4E7896" />
<rect x="16" y="26" width="1" height="1" fill="#4E7896" />
<rect x="17" y="26" width="1" height="1" fill="#4E7896" />
<rect x="26" y="26" width="1" height="1" fill="#FF9900" opacity="0.019608" />
<rect x="35" y="26" width="1" height="1" fill="#4E7896" />
<rect x="36" y="26" width="1" height="1" fill="#4E7896" />
<rect x="37" y="26" width="1" height="1" fill="#4E7896" />
<rect x="38" y="26" width="1" height="1" fill="#4E7896" />
<rect x="39" y="26" width="1" height="1" fill="#4E7896" opacity="0.988235" />
<rect x="11" y="27" width="1" height="1" fill="#5580AA" opacity="0.023529" />
<rect x="12" y="27" width="1" height="1" fill="#4E7896" />
<rect x="13" y="27" width="1" height="1" fill="#4E7896" />
<rect x="14" y="27" width="1" height="1" fill="#4E7896" />
<rect x="37" y="27" width="1" height="1" fill="#4E7896" />
<rect x="38" y="27" width="1" height="1" fill="#4E7896" />
<rect x="39" y="27" width="1" height="1" fill="#4E7896" />
<rect x="40" y="27" width="1" height="1" fill="#4E7896" />
<rect x="11" y="28" width="1" height="1" fill="#4E7896" />
<rect x="12" y="28" width="1" height="1" fill="#4E7896" />
<rect x="13" y="28" width="1" height="1" fill="#4E7896" />
<rect x="14" y="28" width="1" height="1" fill="#4E7896" />
<rect x="25" y="28" width="1" height="1" fill="#FF802B" opacity="0.023529" />
<rect x="26" y="28" width="1" height="1" fill="#FF9224" opacity="0.027451" />
<rect x="32" y="28" width="1" height="1" fill="#808080" opacity="0.007843" />
<rect x="39" y="28" width="1" height="1" fill="#4E7896" />
<rect x="40" y="28" width="1" height="1" fill="#4E7896" />
<rect x="41" y="28" width="1" height="1" fill="#4E7896" />
<rect x="11" y="29" width="1" height="1" fill="#4E7896" />
<rect x="12" y="29" width="1" height="1" fill="#4E7896" />
<rect x="13" y="29" width="1" height="1" fill="#4E7896" />
<rect x="14" y="29" width="1" height="1" fill="#4E7896" />
<rect x="15" y="29" width="1" height="1" fill="#4E7896" />
<rect x="16" y="29" width="1" height="1" fill="#4E7896" />
<rect x="17" y="29" width="1" height="1" fill="#4E7896" />
<rect x="18" y="29" width="1" height="1" fill="#4E7896" />
<rect x="19" y="29" width="1" height="1" fill="#4E7896" />
<rect x="20" y="29" width="1" height="1" fill="#4E7896" />
<rect x="21" y="29" width="1" height="1" fill="#4E7896" />
<rect x="22" y="29" width="1" height="1" fill="#4E7896" />
<rect x="23" y="29" width="1" height="1" fill="#4E7896" />
<rect x="24" y="29" width="1" height="1" fill="#4E7896" />
<rect x="25" y="29" width="1" height="1" fill="#4E7896" />
<rect x="26" y="29" width="1" height="1" fill="#4E7896" />
<rect x="27" y="29" width="1" height="1" fill="#4E7896" />
<rect x="28" y="29" width="1" height="1" fill="#4E7896" />
<rect x="29" y="29" width="1" height="1" fill="#4E7896" />
<rect x="30" y="29" width="1" height="1" fill="#4E7896" />
<rect x="31" y="29" width="1" height="1" fill="#4E7896" />
<rect x="40" y="29" width="1" height="1" fill="#4E7896" />
<rect x="41" y="29" width="1" height="1" fill="#4E7896" />
<rect x="12" y="30" width="1" height="1" fill="#4E7896" />
<rect x="13" y="30" width="1" height="1" fill="#4E7896" />
<rect x="14" y="30" width="1" height="1" fill="#4E7896" />
<rect x="15" y="30" width="1" height="1" fill="#4E7896" />
<rect x="16" y="30" width="1" height="1" fill="#4E7896" />
<rect x="17" y="30" width="1" height="1" fill="#4E7896" />
<rect x="18" y="30" width="1" height="1" fill="#4E7896" />
<rect x="19" y="30" width="1" height="1" fill="#4E7896" />
<rect x="20" y="30" width="1" height="1" fill="#4E7896" />
<rect x="21" y="30" width="1" height="1" fill="#4E7896" />
<rect x="22" y="30" width="1" height="1" fill="#4E7896" />
<rect x="23" y="30" width="1" height="1" fill="#4E7896" />
<rect x="24" y="30" width="1" height="1" fill="#4E7896" />
<rect x="25" y="30" width="1" height="1" fill="#4E7896" />
<rect x="26" y="30" width="1" height="1" fill="#4E7896" />
<rect x="27" y="30" width="1" height="1" fill="#4E7896" />
<rect x="28" y="30" width="1" height="1" fill="#4E7896" />
<rect x="29" y="30" width="1" height="1" fill="#4E7896" />
<rect x="39" y="30" width="1" height="1" fill="#408080" opacity="0.015686" />
<rect x="40" y="30" width="1" height="1" fill="#4E7896" />
<rect x="41" y="30" width="1" height="1" fill="#4E7896" />
<rect x="39" y="31" width="1" height="1" fill="#4E7896" />
<rect x="40" y="31" width="1" height="1" fill="#4E7896" />
<rect x="14" y="32" width="1" height="1" fill="#4E7896" />
<rect x="15" y="32" width="1" height="1" fill="#4E7896" />
<rect x="16" y="32" width="1" height="1" fill="#666699" opacity="0.019608" />
<rect x="37" y="32" width="1" height="1" fill="#4F7B95" opacity="0.113725" />
<rect x="38" y="32" width="1" height="1" fill="#4E7896" />
<rect x="39" y="32" width="1" height="1" fill="#4E7896" />
<rect x="40" y="32" width="1" height="1" fill="#4E7896" />
<rect x="14" y="33" width="1" height="1" fill="#4E7896" />
<rect x="15" y="33" width="1" height="1" fill="#4E7896" />
<rect x="30" y="33" width="1" height="1" fill="#4E7896" />
<rect x="31" y="33" width="1" height="1" fill="#4E7896" />
<rect x="32" y="33" width="1" height="1" fill="#4E7896" />
<rect x="37" y="33" width="1" height="1" fill="#4E7896" />
<rect x="38" y="33" width="1" height="1" fill="#4E7896" />
<rect x="39" y="33" width="1" height="1" fill="#4E7896" />
<rect x="14" y="34" width="1" height="1" fill="#4E7896" />
<rect x="15" y="34" width="1" height="1" fill="#4E7896" />
<rect x="16" y="34" width="1" height="1" fill="#4E7896" />
<rect x="17" y="34" width="1" height="1" fill="#4E7896" />
<rect x="18" y="34" width="1" height="1" fill="#4E7896" />
<rect x="19" y="34" width="1" height="1" fill="#4E7896" />
<rect x="20" y="34" width="1" height="1" fill="#4E7896" />
<rect x="21" y="34" width="1" height="1" fill="#4E7896" />
<rect x="22" y="34" width="1" height="1" fill="#4E7896" />
<rect x="23" y="34" width="1" height="1" fill="#4E7896" />
<rect x="24" y="34" width="1" height="1" fill="#4E7896" />
<rect x="25" y="34" width="1" height="1" fill="#4E7896" />
<rect x="26" y="34" width="1" height="1" fill="#4E7896" />
<rect x="27" y="34" width="1" height="1" fill="#4E7896" />
<rect x="28" y="34" width="1" height="1" fill="#4E7896" />
<rect x="29" y="34" width="1" height="1" fill="#4E7896" />
<rect x="30" y="34" width="1" height="1" fill="#4E7896" />
<rect x="31" y="34" width="1" height="1" fill="#4E7896" />
<rect x="35" y="34" width="1" height="1" fill="#4E7896" />
<rect x="36" y="34" width="1" height="1" fill="#4E7896" />
<rect x="37" y="34" width="1" height="1" fill="#4E7896" />
<rect x="38" y="34" width="1" height="1" fill="#4E7896" />
<rect x="15" y="35" width="1" height="1" fill="#4E7896" />
<rect x="16" y="35" width="1" height="1" fill="#4E7896" />
<rect x="17" y="35" width="1" height="1" fill="#4E7896" />
<rect x="18" y="35" width="1" height="1" fill="#4E7896" />
<rect x="19" y="35" width="1" height="1" fill="#4E7896" />
<rect x="20" y="35" width="1" height="1" fill="#4E7896" />
<rect x="21" y="35" width="1" height="1" fill="#4E7896" />
<rect x="22" y="35" width="1" height="1" fill="#4E7896" />
<rect x="23" y="35" width="1" height="1" fill="#4E7896" />
<rect x="24" y="35" width="1" height="1" fill="#4E7896" />
<rect x="25" y="35" width="1" height="1" fill="#4E7896" />
<rect x="26" y="35" width="1" height="1" fill="#4E7896" />
<rect x="27" y="35" width="1" height="1" fill="#4E7896" />
<rect x="28" y="35" width="1" height="1" fill="#4E7896" />
<rect x="29" y="35" width="1" height="1" fill="#4E7896" />
<rect x="30" y="35" width="1" height="1" fill="#4E7896" />
<rect x="34" y="35" width="1" height="1" fill="#50808F" opacity="0.062745" />
<rect x="13" y="37" width="1" height="1" fill="#4E7896" />
<rect x="14" y="37" width="1" height="1" fill="#4E7896" />
<rect x="16" y="37" width="1" height="1" fill="#5555AA" opacity="0.011765" />
<rect x="17" y="37" width="1" height="1" fill="#808080" opacity="0.007843" />
<rect x="13" y="38" width="1" height="1" fill="#4E7896" />
<rect x="14" y="38" width="1" height="1" fill="#4E7896" />
<rect x="15" y="38" width="1" height="1" fill="#4E7896" />
<rect x="16" y="38" width="1" height="1" fill="#4E7896" />
<rect x="17" y="38" width="1" height="1" fill="#4E7896" />
<rect x="27" y="38" width="1" height="1" fill="#4E7896" />
<rect x="28" y="38" width="1" height="1" fill="#4E7896" />
<rect x="29" y="38" width="1" height="1" fill="#4E7896" />
<rect x="14" y="39" width="1" height="1" fill="#4E7896" />
<rect x="15" y="39" width="1" height="1" fill="#4E7896" />
<rect x="16" y="39" width="1" height="1" fill="#4E7896" />
<rect x="17" y="39" width="1" height="1" fill="#4E7896" />
<rect x="18" y="39" width="1" height="1" fill="#4E7896" />
<rect x="19" y="39" width="1" height="1" fill="#4E7896" />
<rect x="20" y="39" width="1" height="1" fill="#4E7896" />
<rect x="21" y="39" width="1" height="1" fill="#4E7896" />
<rect x="22" y="39" width="1" height="1" fill="#4E7896" />
<rect x="23" y="39" width="1" height="1" fill="#4E7896" />
<rect x="24" y="39" width="1" height="1" fill="#4E7896" />
<rect x="25" y="39" width="1" height="1" fill="#4E7896" />
<rect x="26" y="39" width="1" height="1" fill="#4E7896" />
<rect x="27" y="39" width="1" height="1" fill="#4E7896" />
<rect x="28" y="39" width="1" height="1" fill="#4E7896" />
<rect x="29" y="39" width="1" height="1" fill="#4E7896" />
<rect x="30" y="39" width="1" height="1" fill="#4E7896" />
<rect x="9" y="40" width="1" height="1" fill="#4E7896" />
<rect x="10" y="40" width="1" height="1" fill="#4E7896" />
<rect x="11" y="40" width="1" height="1" fill="#4E7896" />
<rect x="17" y="40" width="1" height="1" fill="#4E7896" />
<rect x="18" y="40" width="1" height="1" fill="#4E7896" />
<rect x="19" y="40" width="1" height="1" fill="#4E7896" />
<rect x="20" y="40" width="1" height="1" fill="#4E7896" />
<rect x="21" y="40" width="1" height="1" fill="#4E7896" />
<rect x="22" y="40" width="1" height="1" fill="#4E7896" />
<rect x="23" y="40" width="1" height="1" fill="#4E7896" />
<rect x="24" y="40" width="1" height="1" fill="#4E7896" />
<rect x="25" y="40" width="1" height="1" fill="#4E7896" />
<rect x="26" y="40" width="1" height="1" fill="#4E7896" />
<rect x="27" y="40" width="1" height="1" fill="#4E7896" />
<rect x="28" y="40" width="1" height="1" fill="#4E7896" />
<rect x="7" y="41" width="1" height="1" fill="#4E7896" />
<rect x="8" y="41" width="1" height="1" fill="#4E7896" />
<rect x="9" y="41" width="1" height="1" fill="#4E7896" />
<rect x="39" y="41" width="1" height="1" fill="#4E7896" />
<rect x="40" y="41" width="1" height="1" fill="#4E7896" />
<rect x="6" y="42" width="1" height="1" fill="#4E7896" />
<rect x="7" y="42" width="1" height="1" fill="#4E7896" />
<rect x="8" y="42" width="1" height="1" fill="#4E7896" />
<rect x="38" y="42" width="1" height="1" fill="#4E7896" />
<rect x="39" y="42" width="1" height="1" fill="#4E7896" />
<rect x="6" y="43" width="1" height="1" fill="#4E7896" />
<rect x="7" y="43" width="1" height="1" fill="#4E7896" />
<rect x="8" y="43" width="1" height="1" fill="#4E7896" />
<rect x="36" y="43" width="1" height="1" fill="#4E7896" />
<rect x="37" y="43" width="1" height="1" fill="#4E7896" />
<rect x="38" y="43" width="1" height="1" fill="#4E7896" />
<rect x="42" y="43" width="1" height="1" fill="#4E7896" />
<rect x="7" y="44" width="1" height="1" fill="#4E7896" />
<rect x="8" y="44" width="1" height="1" fill="#4E7896" />
<rect x="9" y="44" width="1" height="1" fill="#4E7896" />
<rect x="10" y="44" width="1" height="1" fill="#4E7896" />
<rect x="11" y="44" width="1" height="1" fill="#4E7896" />
<rect x="12" y="44" width="1" height="1" fill="#4E7896" />
<rect x="13" y="44" width="1" height="1" fill="#4E7896" />
<rect x="14" y="44" width="1" height="1" fill="#4E7896" />
<rect x="15" y="44" width="1" height="1" fill="#4E7896" />
<rect x="16" y="44" width="1" height="1" fill="#4E7896" />
<rect x="17" y="44" width="1" height="1" fill="#4E7896" />
<rect x="18" y="44" width="1" height="1" fill="#4E7896" />
<rect x="19" y="44" width="1" height="1" fill="#4E7896" />
<rect x="20" y="44" width="1" height="1" fill="#4E7896" />
<rect x="21" y="44" width="1" height="1" fill="#4E7896" />
<rect x="22" y="44" width="1" height="1" fill="#4E7896" />
<rect x="23" y="44" width="1" height="1" fill="#4E7896" />
<rect x="24" y="44" width="1" height="1" fill="#4E7896" />
<rect x="25" y="44" width="1" height="1" fill="#4E7896" />
<rect x="26" y="44" width="1" height="1" fill="#4E7896" />
<rect x="27" y="44" width="1" height="1" fill="#4E7896" />
<rect x="28" y="44" width="1" height="1" fill="#4E7896" />
<rect x="29" y="44" width="1" height="1" fill="#4E7896" />
<rect x="30" y="44" width="1" height="1" fill="#4E7896" />
<rect x="31" y="44" width="1" height="1" fill="#4E7896" opacity="0.996078" />
<rect x="32" y="44" width="1" height="1" fill="#4E7896" opacity="0.882353" />
<rect x="35" y="44" width="1" height="1" fill="#4E769D" opacity="0.050980" />
<rect x="39" y="44" width="1" height="1" fill="#666699" opacity="0.019608" />
<rect x="40" y="44" width="1" height="1" fill="#4E7896" />
<rect x="41" y="44" width="1" height="1" fill="#4E7896" />
<rect x="42" y="44" width="1" height="1" fill="#4E7896" />
<rect x="9" y="45" width="1" height="1" fill="#4E7896" />
<rect x="10" y="45" width="1" height="1" fill="#4E7896" />
<rect x="11" y="45" width="1" height="1" fill="#4E7896" />
<rect x="12" y="45" width="1" height="1" fill="#4E7896" />
<rect x="13" y="45" width="1" height="1" fill="#4E7896" />
<rect x="14" y="45" width="1" height="1" fill="#4E7896" />
<rect x="15" y="45" width="1" height="1" fill="#4E7896" />
<rect x="16" y="45" width="1" height="1" fill="#4E7896" />
<rect x="17" y="45" width="1" height="1" fill="#4E7896" />
<rect x="18" y="45" width="1" height="1" fill="#4E7896" />
<rect x="19" y="45" width="1" height="1" fill="#4E7896" />
<rect x="20" y="45" width="1" height="1" fill="#4E7896" />
<rect x="21" y="45" width="1" height="1" fill="#4E7896" />
<rect x="22" y="45" width="1" height="1" fill="#4E7896" />
<rect x="23" y="45" width="1" height="1" fill="#4E7896" />
<rect x="24" y="45" width="1" height="1" fill="#4E7896" />
<rect x="25" y="45" width="1" height="1" fill="#4E7896" />
<rect x="26" y="45" width="1" height="1" fill="#4E7896" />
<rect x="27" y="45" width="1" height="1" fill="#4E7896" />
<rect x="38" y="45" width="1" height="1" fill="#4E7896" />
<rect x="39" y="45" width="1" height="1" fill="#4E7896" />
<rect x="40" y="45" width="1" height="1" fill="#4E7896" />
<rect x="35" y="46" width="1" height="1" fill="#4E7896" />
<rect x="36" y="46" width="1" height="1" fill="#4E7896" />
<rect x="37" y="46" width="1" height="1" fill="#4E7896" />
<rect x="38" y="46" width="1" height="1" fill="#4E7896" />
<rect x="39" y="46" width="1" height="1" fill="#4E7896" />
<rect x="18" y="47" width="1" height="1" fill="#4E7896" />
<rect x="19" y="47" width="1" height="1" fill="#4E7896" />
<rect x="20" y="47" width="1" height="1" fill="#4E7896" />
<rect x="21" y="47" width="1" height="1" fill="#4E7896" />
<rect x="22" y="47" width="1" height="1" fill="#4E7896" />
<rect x="23" y="47" width="1" height="1" fill="#4E7896" />
<rect x="24" y="47" width="1" height="1" fill="#4E7896" />
<rect x="25" y="47" width="1" height="1" fill="#4E7896" />
<rect x="26" y="47" width="1" height="1" fill="#4E7896" />
<rect x="27" y="47" width="1" height="1" fill="#4E7896" />
<rect x="28" y="47" width="1" height="1" fill="#4E7896" />
<rect x="29" y="47" width="1" height="1" fill="#4E7896" />
<rect x="30" y="47" width="1" height="1" fill="#4E7896" />
</svg>