<?xml version="1.0" encoding="UTF-8" ?>
<svg version="1.1" width="48" height="48" xmlns="http://www.w3.org/2000/svg" shape-rendering="crispEdges">
<rect x="12" y="3" width="1" height="1" fill="#61DAFB" />
<rect x="13" y="3" width="1" height="1" fill="#61DAFB" />
<rect x="14" y="3" width="1" height="1" fill="#61DAFB" />
<rect x="15" y="3" width="1" height="1" fill="#61DAFB" />
<rect x="16" y="3" width="1" height="1" fill="#61DAFB" />
<rect x="31" y="3" width="1" height="1" fill="#61DAFB" />
<rect x="32" y="3" width="1" height="1" fill="#61DAFB" />
<rect x="33" y="3" width="1" height="1" fill="#61DAFB" />
<rect x="34" y="3" width="1" height="1" fill="#61DAFB" />
<rect x="35" y="3" width="1" height="1" fill="#61DAFB" />
<rect x="11" y="4" width="1" height="1" fill="#61DAFB" />
<rect x="12" y="4" width="1" height="1" fill="#61DAFB" />
<rect x="13" y="4" width="1" height="1" fill="#61DAFB" />
<rect x="14" y="4" width="1" height="1" fill="#61DAFB" />
<rect x="15" y="4" width="1" height="1" fill="#61DAFB" />
<rect x="16" y="4" width="1" height="1" fill="#61DAFB" />
<rect x="17" y="4" width="1" height="1" fill="#61DAFB" />
<rect x="18" y="4" width="1" height="1" fill="#61DAFB" />
<rect x="29" y="4" width="1" height="1" fill="#61DAFB" />
<rect x="30" y="4" width="1" height="1" fill="#61DAFB" />
<rect x="31" y="4" width="1" height="1" fill="#61DAFB" />
<rect x="32" y="4" width="1" height="1" fill="#61DAFB" />
<rect x="33" y="4" width="1" height="1" fill="#61DAFB" />
<rect x="34" y="4" width="1" height="1" fill="#61DAFB" />
<rect x="35" y="4" width="1" height="1" fill="#61DAFB" />
<rect x="36" y="4" width="1" height="1" fill="#61DAFB" />
<rect x="10" y="5" width="1" height="1" fill="#61DAFB" />
<rect x="11" y="5" width="1" height="1" fill="#61DAFB" />
<rect x="12" y="5" width="1" height="1" fill="#61DAFB" />
<rect x="16" y="5" width="1" height="1" fill="#61DAFB" />
<rect x="17" y="5" width="1" height="1" fill="#61DAFB" />
<rect x="18" y="5" width="1" height="1" fill="#61DAFB" />
<rect x="19" y="5" width="1" height="1" fill="#61DAFB" />
<rect x="20" y="5" width="1" height="1" fill="#61DAFB" />
<rect x="27" y="5" width="1" height="1" fill="#61DAFB" />
<rect x="28" y="5" width="1" height="1" fill="#61DAFB" />
<rect x="29" y="5" width="1" height="1" fill="#61DAFB" />
<rect x="30" y="5" width="1" height="1" fill="#61DAFB" />
<rect x="31" y="5" width="1" height="1" fill="#61DAFB" />
<rect x="35" y="5" width="1" height="1" fill="#61DAFB" />
<rect x="36" y="5" width="1" height="1" fill="#61DAFB" />
<rect x="37" y="5" width="1" height="1" fill="#61DAFB" />
<rect x="10" y="6" width="1" height="1" fill="#61DAFB" />
<rect x="11" y="6" width="1" height="1" fill="#61DAFB" />
<rect x="18" y="6" width="1" height="1" fill="#61DAFB" />
<rect x="19" y="6" width="1" height="1" fill="#61DAFB" />
<rect x="20" y="6" width="1" height="1" fill="#61DAFB" />
<rect x="21" y="6" width="1" height="1" fill="#61DAFB" />
<rect x="26" y="6" width="1" height="1" fill="#61DAFB" />
<rect x="27" y="6" width="1" height="1" fill="#61DAFB" />
<rect x="28" y="6" width="1" height="1" fill="#61DAFB" />
<rect x="29" y="6" width="1" height="1" fill="#61DAFB" />
<rect x="36" y="6" width="1" height="1" fill="#61DAFB" />
<rect x="37" y="6" width="1" height="1" fill="#61DAFB" />
<rect x="10" y="7" width="1" height="1" fill="#61DAFB" />
<rect x="11" y="7" width="1" height="1" fill="#61DAFB" />
<rect x="20" y="7" width="1" height="1" fill="#61DAFB" />
<rect x="21" y="7" width="1" height="1" fill="#61DAFB" />
<rect x="22" y="7" width="1" height="1" fill="#61DAFB" />
<rect x="25" y="7" width="1" height="1" fill="#61DAFB" />
<rect x="26" y="7" width="1" height="1" fill="#61DAFB" />
<rect x="27" y="7" width="1" height="1" fill="#61DAFB" />
<rect x="36" y="7" width="1" height="1" fill="#61DAFB" />
<rect x="37" y="7" width="1" height="1" fill="#61DAFB" />
<rect x="9" y="8" width="1" height="1" fill="#61DAFB" />
<rect x="10" y="8" width="1" height="1" fill="#61DAFB" />
<rect x="11" y="8" width="1" height="1" fill="#61DAFB" />
<rect x="21" y="8" width="1" height="1" fill="#61DAFB" />
<rect x="22" y="8" width="1" height="1" fill="#61DAFB" />
<rect x="23" y="8" width="1" height="1" fill="#61DAFB" />
<rect x="24" y="8" width="1" height="1" fill="#61DAFB" />
<rect x="25" y="8" width="1" height="1" fill="#61DAFB" />
<rect x="26" y="8" width="1" height="1" fill="#61DAFB" />
<rect x="36" y="8" width="1" height="1" fill="#61DAFB" />
<rect x="37" y="8" width="1" height="1" fill="#61DAFB" />
<rect x="38" y="8" width="1" height="1" fill="#61DAFB" />
<rect x="9" y="9" width="1" height="1" fill="#61DAFB" />
<rect x="10" y="9" width="1" height="1" fill="#61DAFB" />
<rect x="11" y="9" width="1" height="1" fill="#61DAFB" />
<rect x="22" y="9" width="1" height="1" fill="#61DAFB" />
<rect x="23" y="9" width="1" height="1" fill="#61DAFB" />
<rect x="24" y="9" width="1" height="1" fill="#61DAFB" />
<rect x="25" y="9" width="1" height="1" fill="#61DAFB" />
<rect x="36" y="9" width="1" height="1" fill="#61DAFB" />
<rect x="37" y="9" width="1" height="1" fill="#61DAFB" />
<rect x="38" y="9" width="1" height="1" fill="#61DAFB" />
<rect x="9" y="10" width="1" height="1" fill="#61DAFB" />
<rect x="10" y="10" width="1" height="1" fill="#61DAFB" />
<rect x="22" y="10" width="1" height="1" fill="#61DAFB" />
<rect x="23" y="10" width="1" height="1" fill="#61DAFB" />
<rect x="24" y="10" width="1" height="1" fill="#61DAFB" />
<rect x="25" y="10" width="1" height="1" fill="#61DAFB" />
<rect x="37" y="10" width="1" height="1" fill="#61DAFB" />
<rect x="38" y="10" width="1" height="1" fill="#61DAFB" />
<rect x="9" y="11" width="1" height="1" fill="#61DAFB" />
<rect x="10" y="11" width="1" height="1" fill="#61DAFB" />
<rect x="11" y="11" width="1" height="1" fill="#61DAFB" />
<rect x="21" y="11" width="1" height="1" fill="#61DAFB" />
<rect x="22" y="11" width="1" height="1" fill="#61DAFB" />
<rect x="23" y="11" width="1" height="1" fill="#61DAFB" />
<rect x="24" y="11" width="1" height="1" fill="#61DAFB" />
<rect x="25" y="11" width="1" height="1" fill="#61DAFB" />
<rect x="26" y="11" width="1" height="1" fill="#61DAFB" />
<rect x="36" y="11" width="1" height="1" fill="#61DAFB" />
<rect x="37" y="11" width="1" height="1" fill="#61DAFB" />
<rect x="38" y="11" width="1" height="1" fill="#61DAFB" />
<rect x="9" y="12" width="1" height="1" fill="#61DAFB" />
<rect x="10" y="12" width="1" height="1" fill="#61DAFB" />
<rect x="11" y="12" width="1" height="1" fill="#61DAFB" />
<rect x="20" y="12" width="1" height="1" fill="#61DAFB" />
<rect x="21" y="12" width="1" height="1" fill="#61DAFB" />
<rect x="22" y="12" width="1" height="1" fill="#61DAFB" />
<rect x="25" y="12" width="1" height="1" fill="#61DAFB" />
<rect x="26" y="12" width="1" height="1" fill="#61DAFB" />
<rect x="27" y="12" width="1" height="1" fill="#61DAFB" />
<rect x="36" y="12" width="1" height="1" fill="#61DAFB" />
<rect x="37" y="12" width="1" height="1" fill="#61DAFB" />
<rect x="38" y="12" width="1" height="1" fill="#61DAFB" />
<rect x="10" y="13" width="1" height="1" fill="#61DAFB" />
<rect x="11" y="13" width="1" height="1" fill="#61DAFB" />
<rect x="19" y="13" width="1" height="1" fill="#61DAFB" />
<rect x="20" y="13" width="1" height="1" fill="#61DAFB" />
<rect x="21" y="13" width="1" height="1" fill="#61DAFB" />
<rect x="26" y="13" width="1" height="1" fill="#61DAFB" />
<rect x="27" y="13" width="1" height="1" fill="#61DAFB" />
<rect x="28" y="13" width="1" height="1" fill="#61DAFB" />
<rect x="36" y="13" width="1" height="1" fill="#61DAFB" />
<rect x="37" y="13" width="1" height="1" fill="#61DAFB" />
<rect x="10" y="14" width="1" height="1" fill="#61DAFB" />
<rect x="11" y="14" width="1" height="1" fill="#61DAFB" />
<rect x="18" y="14" width="1" height="1" fill="#61DAFB" />
<rect x="19" y="14" width="1" height="1" fill="#61DAFB" />
<rect x="20" y="14" width="1" height="1" fill="#61DAFB" />
<rect x="21" y="14" width="1" height="1" fill="#61DAFB" />
<rect x="22" y="14" width="1" height="1" fill="#61DAFB" />
<rect x="23" y="14" width="1" height="1" fill="#61DAFB" />
<rect x="24" y="14" width="1" height="1" fill="#61DAFB" />
<rect x="25" y="14" width="1" height="1" fill="#61DAFB" />
<rect x="26" y="14" width="1" height="1" fill="#61DAFB" />
<rect x="27" y="14" width="1" height="1" fill="#61DAFB" />
<rect x="28" y="14" width="1" height="1" fill="#61DAFB" />
<rect x="29" y="14" width="1" height="1" fill="#61DAFB" />
<rect x="36" y="14" width="1" height="1" fill="#61DAFB" />
<rect x="37" y="14" width="1" height="1" fill="#61DAFB" />
<rect x="10" y="15" width="1" height="1" fill="#61DAFB" />
<rect x="11" y="15" width="1" height="1" fill="#61DAFB" />
<rect x="12" y="15" width="1" height="1" fill="#61DAFB" />
<rect x="13" y="15" width="1" height="1" fill="#61DAFB" />
<rect x="14" y="15" width="1" height="1" fill="#61DAFB" />
<rect x="15" y="15" width="1" height="1" fill="#61DAFB" />
<rect x="16" y="15" width="1" height="1" fill="#61DAFB" />
<rect x="17" y="15" width="1" height="1" fill="#61DAFB" />
<rect x="18" y="15" width="1" height="1" fill="#61DAFB" />
<rect x="19" y="15" width="1" height="1" fill="#61DAFB" />
<rect x="20" y="15" width="1" height="1" fill="#61DAFB" />
<rect x="21" y="15" width="1" height="1" fill="#61DAFB" />
<rect x="22" y="15" width="1" height="1" fill="#61DAFB" />
<rect x="23" y="15" width="1" height="1" fill="#61DAFB" />
<rect x="24" y="15" width="1" height="1" fill="#61DAFB" />
<rect x="25" y="15" width="1" height="1" fill="#61DAFB" />
<rect x="26" y="15" width="1" height="1" fill="#61DAFB" />
<rect x="27" y="15" width="1" height="1" fill="#61DAFB" />
<rect x="28" y="15" width="1" height="1" fill="#61DAFB" />
<rect x="29" y="15" width="1" height="1" fill="#61DAFB" />
<rect x="30" y="15" width="1" height="1" fill="#61DAFB" />
<rect x="31" y="15" width="1" height="1" fill="#61DAFB" />
<rect x="32" y="15" width="1" height="1" fill="#61DAFB" />
<rect x="33" y="15" width="1" height="1" fill="#61DAFB" />
<rect x="34" y="15" width="1" height="1" fill="#61DAFB" />
<rect x="35" y="15" width="1" height="1" fill="#61DAFB" />
<rect x="36" y="15" width="1" height="1" fill="#61DAFB" />
<rect x="37" y="15" width="1" height="1" fill="#61DAFB" />
<rect x="9" y="16" width="1" height="1" fill="#61DAFB" />
<rect x="10" y="16" width="1" height="1" fill="#61DAFB" />
<rect x="11" y="16" width="1" height="1" fill="#61DAFB" />
<rect x="12" y="16" width="1" height="1" fill="#61DAFB" />
<rect x="13" y="16" width="1" height="1" fill="#61DAFB" />
<rect x="14" y="16" width="1" height="1" fill="#61DAFB" />
<rect x="15" y="16" width="1" height="1" fill="#61DAFB" />
<rect x="16" y="16" width="1" height="1" fill="#61DAFB" />
<rect x="17" y="16" width="1" height="1" fill="#61DAFB" />
<rect x="18" y="16" width="1" height="1" fill="#61DAFB" />
<rect x="19" y="16" width="1" height="1" fill="#61DAFB" />
<rect x="28" y="16" width="1" height="1" fill="#61DAFB" />
<rect x="29" y="16" width="1" height="1" fill="#61DAFB" />
<rect x="30" y="16" width="1" height="1" fill="#61DAFB" />
<rect x="31" y="16" width="1" height="1" fill="#61DAFB" />
<rect x="32" y="16" width="1" height="1" fill="#61DAFB" />
<rect x="33" y="16" width="1" height="1" fill="#61DAFB" />
<rect x="34" y="16" width="1" height="1" fill="#61DAFB" />
<rect x="35" y="16" width="1" height="1" fill="#61DAFB" />
<rect x="36" y="16" width="1" height="1" fill="#61DAFB" />
<rect x="37" y="16" width="1" height="1" fill="#61DAFB" />
<rect x="38" y="16" width="1" height="1" fill="#61DAFB" />
<rect x="6" y="17" width="1" height="1" fill="#61DAFB" />
<rect x="7" y="17" width="1" height="1" fill="#61DAFB" />
<rect x="8" y="17" width="1" height="1" fill="#61DAFB" />
<rect x="9" y="17" width="1" height="1" fill="#61DAFB" />
<rect x="10" y="17" width="1" height="1" fill="#61DAFB" />
<rect x="11" y="17" width="1" height="1" fill="#61DAFB" />
<rect x="12" y="17" width="1" height="1" fill="#61DAFB" />
<rect x="16" y="17" width="1" height="1" fill="#61DAFB" />
<rect x="17" y="17" width="1" height="1" fill="#61DAFB" />
<rect x="18" y="17" width="1" height="1" fill="#61DAFB" />
<rect x="29" y="17" width="1" height="1" fill="#61DAFB" />
<rect x="30" y="17" width="1" height="1" fill="#61DAFB" />
<rect x="31" y="17" width="1" height="1" fill="#61DAFB" />
<rect x="35" y="17" width="1" height="1" fill="#61DAFB" />
<rect x="36" y="17" width="1" height="1" fill="#61DAFB" />
<rect x="37" y="17" width="1" height="1" fill="#61DAFB" />
<rect x="38" y="17" width="1" height="1" fill="#61DAFB" />
<rect x="39" y="17" width="1" height="1" fill="#61DAFB" />
<rect x="40" y="17" width="1" height="1" fill="#61DAFB" />
<rect x="41" y="17" width="1" height="1" fill="#61DAFB" />
<rect x="4" y="18" width="1" height="1" fill="#61DAFB" />
<rect x="5" y="18" width="1" height="1" fill="#61DAFB" />
<rect x="6" y="18" width="1" height="1" fill="#61DAFB" />
<rect x="7" y="18" width="1" height="1" fill="#61DAFB" />
<rect x="8" y="18" width="1" height="1" fill="#61DAFB" />
<rect x="9" y="18" width="1" height="1" fill="#61DAFB" />
<rect x="11" y="18" width="1" height="1" fill="#61DAFB" />
<rect x="12" y="18" width="1" height="1" fill="#61DAFB" />
<rect x="16" y="18" width="1" height="1" fill="#61DAFB" />
<rect x="17" y="18" width="1" height="1" fill="#61DAFB" />
<rect x="30" y="18" width="1" height="1" fill="#61DAFB" />
<rect x="31" y="18" width="1" height="1" fill="#61DAFB" />
<rect x="35" y="18" width="1" height="1" fill="#61DAFB" />
<rect x="36" y="18" width="1" height="1" fill="#61DAFB" />
<rect x="38" y="18" width="1" height="1" fill="#61DAFB" />
<rect x="39" y="18" width="1" height="1" fill="#61DAFB" />
<rect x="40" y="18" width="1" height="1" fill="#61DAFB" />
<rect x="41" y="18" width="1" height="1" fill="#61DAFB" />
<rect x="42" y="18" width="1" height="1" fill="#61DAFB" />
<rect x="43" y="18" width="1" height="1" fill="#61DAFB" />
<rect x="3" y="19" width="1" height="1" fill="#61DAFB" />
<rect x="4" y="19" width="1" height="1" fill="#61DAFB" />
<rect x="5" y="19" width="1" height="1" fill="#61DAFB" />
<rect x="6" y="19" width="1" height="1" fill="#61DAFB" />
<rect x="11" y="19" width="1" height="1" fill="#61DAFB" />
<rect x="12" y="19" width="1" height="1" fill="#61DAFB" />
<rect x="15" y="19" width="1" height="1" fill="#61DAFB" />
<rect x="16" y="19" width="1" height="1" fill="#61DAFB" />
<rect x="17" y="19" width="1" height="1" fill="#61DAFB" />
<rect x="30" y="19" width="1" height="1" fill="#61DAFB" />
<rect x="31" y="19" width="1" height="1" fill="#61DAFB" />
<rect x="32" y="19" width="1" height="1" fill="#61DAFB" />
<rect x="35" y="19" width="1" height="1" fill="#61DAFB" />
<rect x="36" y="19" width="1" height="1" fill="#61DAFB" />
<rect x="41" y="19" width="1" height="1" fill="#61DAFB" />
<rect x="42" y="19" width="1" height="1" fill="#61DAFB" />
<rect x="43" y="19" width="1" height="1" fill="#61DAFB" />
<rect x="44" y="19" width="1" height="1" fill="#61DAFB" />
<rect x="2" y="20" width="1" height="1" fill="#61DAFB" />
<rect x="3" y="20" width="1" height="1" fill="#61DAFB" />
<rect x="4" y="20" width="1" height="1" fill="#61DAFB" />
<rect x="11" y="20" width="1" height="1" fill="#61DAFB" />
<rect x="12" y="20" width="1" height="1" fill="#61DAFB" />
<rect x="13" y="20" width="1" height="1" fill="#61DAFB" />
<rect x="15" y="20" width="1" height="1" fill="#61DAFB" />
<rect x="16" y="20" width="1" height="1" fill="#61DAFB" />
<rect x="21" y="20" width="1" height="1" fill="#61DAFB" />
<rect x="22" y="20" width="1" height="1" fill="#61DAFB" />
<rect x="23" y="20" width="1" height="1" fill="#61DAFB" />
<rect x="24" y="20" width="1" height="1" fill="#61DAFB" />
<rect x="25" y="20" width="1" height="1" fill="#61DAFB" />
<rect x="26" y="20" width="1" height="1" fill="#61DAFB" />
<rect x="31" y="20" width="1" height="1" fill="#61DAFB" />
<rect x="32" y="20" width="1" height="1" fill="#61DAFB" />
<rect x="34" y="20" width="1" height="1" fill="#61DAFB" />
<rect x="35" y="20" width="1" height="1" fill="#61DAFB" />
<rect x="36" y="20" width="1" height="1" fill="#61DAFB" />
<rect x="43" y="20" width="1" height="1" fill="#61DAFB" />
<rect x="44" y="20" width="1" height="1" fill="#61DAFB" />
<rect x="45" y="20" width="1" height="1" fill="#61DAFB" />
<rect x="1" y="21" width="1" height="1" fill="#61DAFB" />
<rect x="2" y="21" width="1" height="1" fill="#61DAFB" />
<rect x="3" y="21" width="1" height="1" fill="#61DAFB" />
<rect x="12" y="21" width="1" height="1" fill="#61DAFB" />
<rect x="13" y="21" width="1" height="1" fill="#61DAFB" />
<rect x="14" y="21" width="1" height="1" fill="#61DAFB" />
<rect x="15" y="21" width="1" height="1" fill="#61DAFB" />
<rect x="20" y="21" width="1" height="1" fill="#61DAFB" />
<rect x="21" y="21" width="1" height="1" fill="#61DAFB" />
<rect x="22" y="21" width="1" height="1" fill="#61DAFB" />
<rect x="23" y="21" width="1" height="1" fill="#61DAFB" />
<rect x="24" y="21" width="1" height="1" fill="#61DAFB" />
<rect x="25" y="21" width="1" height="1" fill="#61DAFB" />
<rect x="26" y="21" width="1" height="1" fill="#61DAFB" />
<rect x="27" y="21" width="1" height="1" fill="#61DAFB" />
<rect x="32" y="21" width="1" height="1" fill="#61DAFB" />
<rect x="33" y="21" width="1" height="1" fill="#61DAFB" />
<rect x="34" y="21" width="1" height="1" fill="#61DAFB" />
<rect x="35" y="21" width="1" height="1" fill="#61DAFB" />
<rect x="44" y="21" width="1" height="1" fill="#61DAFB" />
<rect x="45" y="21" width="1" height="1" fill="#61DAFB" />
<rect x="46" y="21" width="1" height="1" fill="#61DAFB" />
<rect x="0" y="22" width="1" height="1" fill="#61DAFB" />
<rect x="1" y="22" width="1" height="1" fill="#61DAFB" />
<rect x="2" y="22" width="1" height="1" fill="#61DAFB" />
<rect x="12" y="22" width="1" height="1" fill="#61DAFB" />
<rect x="13" y="22" width="1" height="1" fill="#61DAFB" />
<rect x="14" y="22" width="1" height="1" fill="#61DAFB" />
<rect x="15" y="22" width="1" height="1" fill="#61DAFB" />
<rect x="20" y="22" width="1" height="1" fill="#61DAFB" />
<rect x="21" y="22" width="1" height="1" fill="#61DAFB" />
<rect x="22" y="22" width="1" height="1" fill="#61DAFB" />
<rect x="23" y="22" width="1" height="1" fill="#61DAFB" />
<rect x="24" y="22" width="1" height="1" fill="#61DAFB" />
<rect x="25" y="22" width="1" height="1" fill="#61DAFB" />
<rect x="26" y="22" width="1" height="1" fill="#61DAFB" />
<rect x="27" y="22" width="1" height="1" fill="#61DAFB" />
<rect x="32" y="22" width="1" height="1" fill="#61DAFB" />
<rect x="33" y="22" width="1" height="1" fill="#61DAFB" />
<rect x="34" y="22" width="1" height="1" fill="#61DAFB" />
<rect x="35" y="22" width="1" height="1" fill="#61DAFB" />
<rect x="45" y="22" width="1" height="1" fill="#61DAFB" />
<rect x="46" y="22" width="1" height="1" fill="#61DAFB" />
<rect x="47" y="22" width="1" height="1" fill="#61DAFB" />
<rect x="0" y="23" width="1" height="1" fill="#61DAFB" />
<rect x="1" y="23" width="1" height="1" fill="#61DAFB" />
<rect x="13" y="23" width="1" height="1" fill="#61DAFB" />
<rect x="14" y="23" width="1" height="1" fill="#61DAFB" />
<rect x="20" y="23" width="1" height="1" fill="#61DAFB" />
<rect x="21" y="23" width="1" height="1" fill="#61DAFB" />
<rect x="22" y="23" width="1" height="1" fill="#61DAFB" />
<rect x="23" y="23" width="1" height="1" fill="#61DAFB" />
<rect x="24" y="23" width="1" height="1" fill="#61DAFB" />
<rect x="25" y="23" width="1" height="1" fill="#61DAFB" />
<rect x="26" y="23" width="1" height="1" fill="#61DAFB" />
<rect x="27" y="23" width="1" height="1" fill="#61DAFB" />
<rect x="33" y="23" width="1" height="1" fill="#61DAFB" />
<rect x="34" y="23" width="1" height="1" fill="#61DAFB" />
<rect x="46" y="23" width="1" height="1" fill="#61DAFB" />
<rect x="47" y="23" width="1" height="1" fill="#61DAFB" />
<rect x="0" y="24" width="1" height="1" fill="#61DAFB" />
<rect x="1" y="24" width="1" height="1" fill="#61DAFB" />
<rect x="13" y="24" width="1" height="1" fill="#61DAFB" />
<rect x="14" y="24" width="1" height="1" fill="#61DAFB" />
<rect x="20" y="24" width="1" height="1" fill="#61DAFB" />
<rect x="21" y="24" width="1" height="1" fill="#61DAFB" />
<rect x="22" y="24" width="1" height="1" fill="#61DAFB" />
<rect x="23" y="24" width="1" height="1" fill="#61DAFB" />
<rect x="24" y="24" width="1" height="1" fill="#61DAFB" />
<rect x="25" y="24" width="1" height="1" fill="#61DAFB" />
<rect x="26" y="24" width="1" height="1" fill="#61DAFB" />
<rect x="27" y="24" width="1" height="1" fill="#61DAFB" />
<rect x="33" y="24" width="1" height="1" fill="#61DAFB" />
<rect x="34" y="24" width="1" height="1" fill="#61DAFB" />
<rect x="46" y="24" width="1" height="1" fill="#61DAFB" />
<rect x="47" y="24" width="1" height="1" fill="#61DAFB" />
<rect x="0" y="25" width="1" height="1" fill="#61DAFB" />
<rect x="1" y="25" width="1" height="1" fill="#61DAFB" />
<rect x="2" y="25" width="1" height="1" fill="#61DAFB" />
<rect x="12" y="25" width="1" height="1" fill="#61DAFB" />
<rect x="13" y="25" width="1" height="1" fill="#61DAFB" />
<rect x="14" y="25" width="1" height="1" fill="#61DAFB" />
<rect x="15" y="25" width="1" height="1" fill="#61DAFB" />
<rect x="20" y="25" width="1" height="1" fill="#61DAFB" />
<rect x="21" y="25" width="1" height="1" fill="#61DAFB" />
<rect x="22" y="25" width="1" height="1" fill="#61DAFB" />
<rect x="23" y="25" width="1" height="1" fill="#61DAFB" />
<rect x="24" y="25" width="1" height="1" fill="#61DAFB" />
<rect x="25" y="25" width="1" height="1" fill="#61DAFB" />
<rect x="26" y="25" width="1" height="1" fill="#61DAFB" />
<rect x="27" y="25" width="1" height="1" fill="#61DAFB" />
<rect x="32" y="25" width="1" height="1" fill="#61DAFB" />
<rect x="33" y="25" width="1" height="1" fill="#61DAFB" />
<rect x="34" y="25" width="1" height="1" fill="#61DAFB" />
<rect x="35" y="25" width="1" height="1" fill="#61DAFB" />
<rect x="45" y="25" width="1" height="1" fill="#61DAFB" />
<rect x="46" y="25" width="1" height="1" fill="#61DAFB" />
<rect x="47" y="25" width="1" height="1" fill="#61DAFB" />
<rect x="1" y="26" width="1" height="1" fill="#61DAFB" />
<rect x="2" y="26" width="1" height="1" fill="#61DAFB" />
<rect x="3" y="26" width="1" height="1" fill="#61DAFB" />
<rect x="12" y="26" width="1" height="1" fill="#61DAFB" />
<rect x="13" y="26" width="1" height="1" fill="#61DAFB" />
<rect x="14" y="26" width="1" height="1" fill="#61DAFB" />
<rect x="15" y="26" width="1" height="1" fill="#61DAFB" />
<rect x="20" y="26" width="1" height="1" fill="#61DAFB" />
<rect x="21" y="26" width="1" height="1" fill="#61DAFB" />
<rect x="22" y="26" width="1" height="1" fill="#61DAFB" />
<rect x="23" y="26" width="1" height="1" fill="#61DAFB" />
<rect x="24" y="26" width="1" height="1" fill="#61DAFB" />
<rect x="25" y="26" width="1" height="1" fill="#61DAFB" />
<rect x="26" y="26" width="1" height="1" fill="#61DAFB" />
<rect x="27" y="26" width="1" height="1" fill="#61DAFB" />
<rect x="32" y="26" width="1" height="1" fill="#61DAFB" />
<rect x="33" y="26" width="1" height="1" fill="#61DAFB" />
<rect x="34" y="26" width="1" height="1" fill="#61DAFB" />
<rect x="35" y="26" width="1" height="1" fill="#61DAFB" />
<rect x="44" y="26" width="1" height="1" fill="#61DAFB" />
<rect x="45" y="26" width="1" height="1" fill="#61DAFB" />
<rect x="46" y="26" width="1" height="1" fill="#61DAFB" />
<rect x="2" y="27" width="1" height="1" fill="#61DAFB" />
<rect x="3" y="27" width="1" height="1" fill="#61DAFB" />
<rect x="4" y="27" width="1" height="1" fill="#61DAFB" />
<rect x="11" y="27" width="1" height="1" fill="#61DAFB" />
<rect x="12" y="27" width="1" height="1" fill="#61DAFB" />
<rect x="13" y="27" width="1" height="1" fill="#61DAFB" />
<rect x="15" y="27" width="1" height="1" fill="#61DAFB" />
<rect x="16" y="27" width="1" height="1" fill="#61DAFB" />
<rect x="21" y="27" width="1" height="1" fill="#61DAFB" />
<rect x="22" y="27" width="1" height="1" fill="#61DAFB" />
<rect x="23" y="27" width="1" height="1" fill="#61DAFB" />
<rect x="24" y="27" width="1" height="1" fill="#61DAFB" />
<rect x="25" y="27" width="1" height="1" fill="#61DAFB" />
<rect x="26" y="27" width="1" height="1" fill="#61DAFB" />
<rect x="31" y="27" width="1" height="1" fill="#61DAFB" />
<rect x="32" y="27" width="1" height="1" fill="#61DAFB" />
<rect x="34" y="27" width="1" height="1" fill="#61DAFB" />
<rect x="35" y="27" width="1" height="1" fill="#61DAFB" />
<rect x="36" y="27" width="1" height="1" fill="#61DAFB" />
<rect x="43" y="27" width="1" height="1" fill="#61DAFB" />
<rect x="44" y="27" width="1" height="1" fill="#61DAFB" />
<rect x="45" y="27" width="1" height="1" fill="#61DAFB" />
<rect x="3" y="28" width="1" height="1" fill="#61DAFB" />
<rect x="4" y="28" width="1" height="1" fill="#61DAFB" />
<rect x="5" y="28" width="1" height="1" fill="#61DAFB" />
<rect x="6" y="28" width="1" height="1" fill="#61DAFB" />
<rect x="11" y="28" width="1" height="1" fill="#61DAFB" />
<rect x="12" y="28" width="1" height="1" fill="#61DAFB" />
<rect x="15" y="28" width="1" height="1" fill="#61DAFB" />
<rect x="16" y="28" width="1" height="1" fill="#61DAFB" />
<rect x="17" y="28" width="1" height="1" fill="#61DAFB" />
<rect x="30" y="28" width="1" height="1" fill="#61DAFB" />
<rect x="31" y="28" width="1" height="1" fill="#61DAFB" />
<rect x="32" y="28" width="1" height="1" fill="#61DAFB" />
<rect x="35" y="28" width="1" height="1" fill="#61DAFB" />
<rect x="36" y="28" width="1" height="1" fill="#61DAFB" />
<rect x="41" y="28" width="1" height="1" fill="#61DAFB" />
<rect x="42" y="28" width="1" height="1" fill="#61DAFB" />
<rect x="43" y="28" width="1" height="1" fill="#61DAFB" />
<rect x="44" y="28" width="1" height="1" fill="#61DAFB" />
<rect x="4" y="29" width="1" height="1" fill="#61DAFB" />
<rect x="5" y="29" width="1" height="1" fill="#61DAFB" />
<rect x="6" y="29" width="1" height="1" fill="#61DAFB" />
<rect x="7" y="29" width="1" height="1" fill="#61DAFB" />
<rect x="8" y="29" width="1" height="1" fill="#61DAFB" />
<rect x="9" y="29" width="1" height="1" fill="#61DAFB" opacity="0.701961" />
<rect x="11" y="29" width="1" height="1" fill="#61DAFB" />
<rect x="12" y="29" width="1" height="1" fill="#61DAFB" />
<rect x="16" y="29" width="1" height="1" fill="#61DAFB" />
<rect x="17" y="29" width="1" height="1" fill="#61DAFB" />
<rect x="30" y="29" width="1" height="1" fill="#61DAFB" />
<rect x="31" y="29" width="1" height="1" fill="#61DAFB" />
<rect x="35" y="29" width="1" height="1" fill="#61DAFB" />
<rect x="36" y="29" width="1" height="1" fill="#61DAFB" />
<rect x="38" y="29" width="1" height="1" fill="#61DAFB" opacity="0.917647" />
<rect x="39" y="29" width="1" height="1" fill="#61DAFB" />
<rect x="40" y="29" width="1" height="1" fill="#61DAFB" />
<rect x="41" y="29" width="1" height="1" fill="#61DAFB" />
<rect x="42" y="29" width="1" height="1" fill="#61DAFB" />
<rect x="43" y="29" width="1" height="1" fill="#61DAFB" />
<rect x="6" y="30" width="1" height="1" fill="#61DAFB" />
<rect x="7" y="30" width="1" height="1" fill="#61DAFB" />
<rect x="8" y="30" width="1" height="1" fill="#61DAFB" />
<rect x="9" y="30" width="1" height="1" fill="#61DAFB" />
<rect x="10" y="30" width="1" height="1" fill="#61DAFB" />
<rect x="11" y="30" width="1" height="1" fill="#61DAFB" />
<rect x="12" y="30" width="1" height="1" fill="#61DAFB" />
<rect x="16" y="30" width="1" height="1" fill="#61DAFB" />
<rect x="17" y="30" width="1" height="1" fill="#61DAFB" />
<rect x="18" y="30" width="1" height="1" fill="#61DAFB" />
<rect x="29" y="30" width="1" height="1" fill="#61DAFB" />
<rect x="30" y="30" width="1" height="1" fill="#61DAFB" />
<rect x="31" y="30" width="1" height="1" fill="#61DAFB" />
<rect x="35" y="30" width="1" height="1" fill="#61DAFB" />
<rect x="36" y="30" width="1" height="1" fill="#61DAFB" />
<rect x="37" y="30" width="1" height="1" fill="#61DAFB" />
<rect x="38" y="30" width="1" height="1" fill="#61DAFB" />
<rect x="39" y="30" width="1" height="1" fill="#61DAFB" />
<rect x="40" y="30" width="1" height="1" fill="#61DAFB" />
<rect x="41" y="30" width="1" height="1" fill="#61DAFB" />
<rect x="9" y="31" width="1" height="1" fill="#61DAFB" />
<rect x="10" y="31" width="1" height="1" fill="#61DAFB" />
<rect x="11" y="31" width="1" height="1" fill="#61DAFB" />
<rect x="12" y="31" width="1" height="1" fill="#61DAFB" />
<rect x="13" y="31" width="1" height="1" fill="#61DAFB" />
<rect x="14" y="31" width="1" height="1" fill="#61DAFB" />
<rect x="15" y="31" width="1" height="1" fill="#61DAFB" />
<rect x="16" y="31" width="1" height="1" fill="#61DAFB" />
<rect x="17" y="31" width="1" height="1" fill="#61DAFB" />
<rect x="18" y="31" width="1" height="1" fill="#61DAFB" />
<rect x="19" y="31" width="1" height="1" fill="#61DAFB" />
<rect x="28" y="31" width="1" height="1" fill="#61DAFB" />
<rect x="29" y="31" width="1" height="1" fill="#61DAFB" />
<rect x="30" y="31" width="1" height="1" fill="#61DAFB" />
<rect x="31" y="31" width="1" height="1" fill="#61DAFB" />
<rect x="32" y="31" width="1" height="1" fill="#61DAFB" />
<rect x="33" y="31" width="1" height="1" fill="#61DAFB" />
<rect x="34" y="31" width="1" height="1" fill="#61DAFB" />
<rect x="35" y="31" width="1" height="1" fill="#61DAFB" />
<rect x="36" y="31" width="1" height="1" fill="#61DAFB" />
<rect x="37" y="31" width="1" height="1" fill="#61DAFB" />
<rect x="38" y="31" width="1" height="1" fill="#61DAFB" />
<rect x="10" y="32" width="1" height="1" fill="#61DAFB" />
<rect x="11" y="32" width="1" height="1" fill="#61DAFB" />
<rect x="12" y="32" width="1" height="1" fill="#61DAFB" />
<rect x="13" y="32" width="1" height="1" fill="#61DAFB" />
<rect x="14" y="32" width="1" height="1" fill="#61DAFB" />
<rect x="15" y="32" width="1" height="1" fill="#61DAFB" />
<rect x="16" y="32" width="1" height="1" fill="#61DAFB" />
<rect x="17" y="32" width="1" height="1" fill="#61DAFB" />
<rect x="18" y="32" width="1" height="1" fill="#61DAFB" />
<rect x="19" y="32" width="1" height="1" fill="#61DAFB" />
<rect x="20" y="32" width="1" height="1" fill="#61DAFB" />
<rect x="21" y="32" width="1" height="1" fill="#61DAFB" />
<rect x="22" y="32" width="1" height="1" fill="#61DAFB" />
<rect x="23" y="32" width="1" height="1" fill="#61DAFB" />
<rect x="24" y="32" width="1" height="1" fill="#61DAFB" />
<rect x="25" y="32" width="1" height="1" fill="#61DAFB" />
<rect x="26" y="32" width="1" height="1" fill="#61DAFB" />
<rect x="27" y="32" width="1" height="1" fill="#61DAFB" />
<rect x="28" y="32" width="1" height="1" fill="#61DAFB" />
<rect x="29" y="32" width="1" height="1" fill="#61DAFB" />
<rect x="30" y="32" width="1" height="1" fill="#61DAFB" />
<rect x="31" y="32" width="1" height="1" fill="#61DAFB" />
<rect x="32" y="32" width="1" height="1" fill="#61DAFB" />
<rect x="33" y="32" width="1" height="1" fill="#61DAFB" />
<rect x="34" y="32" width="1" height="1" fill="#61DAFB" />
<rect x="35" y="32" width="1" height="1" fill="#61DAFB" />
<rect x="36" y="32" width="1" height="1" fill="#61DAFB" />
<rect x="37" y="32" width="1" height="1" fill="#61DAFB" />
<rect x="10" y="33" width="1" height="1" fill="#61DAFB" />
<rect x="11" y="33" width="1" height="1" fill="#61DAFB" />
<rect x="18" y="33" width="1" height="1" fill="#61DAFB" />
<rect x="19" y="33" width="1" height="1" fill="#61DAFB" />
<rect x="20" y="33" width="1" height="1" fill="#61DAFB" />
<rect x="21" y="33" width="1" height="1" fill="#61DAFB" />
<rect x="22" y="33" width="1" height="1" fill="#61DAFB" />
<rect x="23" y="33" width="1" height="1" fill="#61DAFB" />
<rect x="24" y="33" width="1" height="1" fill="#61DAFB" />
<rect x="25" y="33" width="1" height="1" fill="#61DAFB" />
<rect x="26" y="33" width="1" height="1" fill="#61DAFB" />
<rect x="27" y="33" width="1" height="1" fill="#61DAFB" />
<rect x="28" y="33" width="1" height="1" fill="#61DAFB" />
<rect x="29" y="33" width="1" height="1" fill="#61DAFB" />
<rect x="36" y="33" width="1" height="1" fill="#61DAFB" />
<rect x="37" y="33" width="1" height="1" fill="#61DAFB" />
<rect x="10" y="34" width="1" height="1" fill="#61DAFB" />
<rect x="11" y="34" width="1" height="1" fill="#61DAFB" />
<rect x="19" y="34" width="1" height="1" fill="#61DAFB" />
<rect x="20" y="34" width="1" height="1" fill="#61DAFB" />
<rect x="21" y="34" width="1" height="1" fill="#61DAFB" />
<rect x="26" y="34" width="1" height="1" fill="#61DAFB" />
<rect x="27" y="34" width="1" height="1" fill="#61DAFB" />
<rect x="28" y="34" width="1" height="1" fill="#61DAFB" />
<rect x="36" y="34" width="1" height="1" fill="#61DAFB" />
<rect x="37" y="34" width="1" height="1" fill="#61DAFB" />
<rect x="9" y="35" width="1" height="1" fill="#61DAFB" />
<rect x="10" y="35" width="1" height="1" fill="#61DAFB" />
<rect x="11" y="35" width="1" height="1" fill="#61DAFB" />
<rect x="20" y="35" width="1" height="1" fill="#61DAFB" />
<rect x="21" y="35" width="1" height="1" fill="#61DAFB" />
<rect x="22" y="35" width="1" height="1" fill="#61DAFB" />
<rect x="25" y="35" width="1" height="1" fill="#61DAFB" />
<rect x="26" y="35" width="1" height="1" fill="#61DAFB" />
<rect x="27" y="35" width="1" height="1" fill="#61DAFB" />
<rect x="36" y="35" width="1" height="1" fill="#61DAFB" />
<rect x="37" y="35" width="1" height="1" fill="#61DAFB" />
<rect x="38" y="35" width="1" height="1" fill="#61DAFB" />
<rect x="9" y="36" width="1" height="1" fill="#61DAFB" />
<rect x="10" y="36" width="1" height="1" fill="#61DAFB" />
<rect x="11" y="36" width="1" height="1" fill="#61DAFB" />
<rect x="21" y="36" width="1" height="1" fill="#61DAFB" />
<rect x="22" y="36" width="1" height="1" fill="#61DAFB" />
<rect x="23" y="36" width="1" height="1" fill="#61DAFB" />
<rect x="24" y="36" width="1" height="1" fill="#61DAFB" />
<rect x="25" y="36" width="1" height="1" fill="#61DAFB" />
<rect x="26" y="36" width="1" height="1" fill="#61DAFB" />
<rect x="36" y="36" width="1" height="1" fill="#61DAFB" />
<rect x="37" y="36" width="1" height="1" fill="#61DAFB" />
<rect x="38" y="36" width="1" height="1" fill="#61DAFB" />
<rect x="9" y="37" width="1" height="1" fill="#61DAFB" />
<rect x="10" y="37" width="1" height="1" fill="#61DAFB" />
<rect x="22" y="37" width="1" height="1" fill="#61DAFB" />
<rect x="23" y="37" width="1" height="1" fill="#61DAFB" />
<rect x="24" y="37" width="1" height="1" fill="#61DAFB" />
<rect x="25" y="37" width="1" height="1" fill="#61DAFB" />
<rect x="37" y="37" width="1" height="1" fill="#61DAFB" />
<rect x="38" y="37" width="1" height="1" fill="#61DAFB" />
<rect x="9" y="38" width="1" height="1" fill="#61DAFB" />
<rect x="10" y="38" width="1" height="1" fill="#61DAFB" />
<rect x="11" y="38" width="1" height="1" fill="#61DAFB" />
<rect x="22" y="38" width="1" height="1" fill="#61DAFB" />
<rect x="23" y="38" width="1" height="1" fill="#61DAFB" />
<rect x="24" y="38" width="1" height="1" fill="#61DAFB" />
<rect x="25" y="38" width="1" height="1" fill="#61DAFB" />
<rect x="36" y="38" width="1" height="1" fill="#61DAFB" />
<rect x="37" y="38" width="1" height="1" fill="#61DAFB" />
<rect x="38" y="38" width="1" height="1" fill="#61DAFB" />
<rect x="9" y="39" width="1" height="1" fill="#61DAFB" />
<rect x="10" y="39" width="1" height="1" fill="#61DAFB" />
<rect x="11" y="39" width="1" height="1" fill="#61DAFB" />
<rect x="21" y="39" width="1" height="1" fill="#61DAFB" />
<rect x="22" y="39" width="1" height="1" fill="#61DAFB" />
<rect x="23" y="39" width="1" height="1" fill="#61DAFB" />
<rect x="24" y="39" width="1" height="1" fill="#61DAFB" />
<rect x="25" y="39" width="1" height="1" fill="#61DAFB" />
<rect x="26" y="39" width="1" height="1" fill="#61DAFB" />
<rect x="36" y="39" width="1" height="1" fill="#61DAFB" />
<rect x="37" y="39" width="1" height="1" fill="#61DAFB" />
<rect x="38" y="39" width="1" height="1" fill="#61DAFB" />
<rect x="10" y="40" width="1" height="1" fill="#61DAFB" />
<rect x="11" y="40" width="1" height="1" fill="#61DAFB" />
<rect x="20" y="40" width="1" height="1" fill="#61DAFB" />
<rect x="21" y="40" width="1" height="1" fill="#61DAFB" />
<rect x="22" y="40" width="1" height="1" fill="#61DAFB" />
<rect x="25" y="40" width="1" height="1" fill="#61DAFB" />
<rect x="26" y="40" width="1" height="1" fill="#61DAFB" />
<rect x="27" y="40" width="1" height="1" fill="#61DAFB" />
<rect x="36" y="40" width="1" height="1" fill="#61DAFB" />
<rect x="37" y="40" width="1" height="1" fill="#61DAFB" />
<rect x="10" y="41" width="1" height="1" fill="#61DAFB" />
<rect x="11" y="41" width="1" height="1" fill="#61DAFB" />
<rect x="18" y="41" width="1" height="1" fill="#61DAFB" />
<rect x="19" y="41" width="1" height="1" fill="#61DAFB" />
<rect x="20" y="41" width="1" height="1" fill="#61DAFB" />
<rect x="21" y="41" width="1" height="1" fill="#61DAFB" />
<rect x="26" y="41" width="1" height="1" fill="#61DAFB" />
<rect x="27" y="41" width="1" height="1" fill="#61DAFB" />
<rect x="28" y="41" width="1" height="1" fill="#61DAFB" />
<rect x="29" y="41" width="1" height="1" fill="#61DAFB" />
<rect x="36" y="41" width="1" height="1" fill="#61DAFB" />
<rect x="37" y="41" width="1" height="1" fill="#61DAFB" />
<rect x="10" y="42" width="1" height="1" fill="#61DAFB" />
<rect x="11" y="42" width="1" height="1" fill="#61DAFB" />
<rect x="12" y="42" width="1" height="1" fill="#61DAFB" />
<rect x="16" y="42" width="1" height="1" fill="#61DAFB" />
<rect x="17" y="42" width="1" height="1" fill="#61DAFB" />
<rect x="18" y="42" width="1" height="1" fill="#61DAFB" />
<rect x="19" y="42" width="1" height="1" fill="#61DAFB" />
<rect x="20" y="42" width="1" height="1" fill="#61DAFB" />
<rect x="27" y="42" width="1" height="1" fill="#61DAFB" />
<rect x="28" y="42" width="1" height="1" fill="#61DAFB" />
<rect x="29" y="42" width="1" height="1" fill="#61DAFB" />
<rect x="30" y="42" width="1" height="1" fill="#61DAFB" />
<rect x="31" y="42" width="1" height="1" fill="#61DAFB" />
<rect x="35" y="42" width="1" height="1" fill="#61DAFB" />
<rect x="36" y="42" width="1" height="1" fill="#61DAFB" />
<rect x="37" y="42" width="1" height="1" fill="#61DAFB" />
<rect x="11" y="43" width="1" height="1" fill="#61DAFB" />
<rect x="12" y="43" width="1" height="1" fill="#61DAFB" />
<rect x="13" y="43" width="1" height="1" fill="#61DAFB" />
<rect x="14" y="43" width="1" height="1" fill="#61DAFB" />
<rect x="15" y="43" width="1" height="1" fill="#61DAFB" />
<rect x="16" y="43" width="1" height="1" fill="#61DAFB" />
<rect x="17" y="43" width="1" height="1" fill="#61DAFB" />
<rect x="18" y="43" width="1" height="1" fill="#61DAFB" />
<rect x="29" y="43" width="1" height="1" fill="#61DAFB" />
<rect x="30" y="43" width="1" height="1" fill="#61DAFB" />
<rect x="31" y="43" width="1" height="1" fill="#61DAFB" />
<rect x="32" y="43" width="1" height="1" fill="#61DAFB" />
<rect x="33" y="43" width="1" height="1" fill="#61DAFB" />
<rect x="34" y="43" width="1" height="1" fill="#61DAFB" />
<rect x="35" y="43" width="1" height="1" fill="#61DAFB" />
<rect x="36" y="43" width="1" height="1" fill="#61DAFB" />
<rect x="12" y="44" width="1" height="1" fill="#61DAFB" />
<rect x="13" y="44" width="1" height="1" fill="#61DAFB" />
<rect x="14" y="44" width="1" height="1" fill="#61DAFB" />
<rect x="15" y="44" width="1" height="1" fill="#61DAFB" />
<rect x="16" y="44" width="1" height="1" fill="#61DAFB" />
<rect x="31" y="44" width="1" height="1" fill="#61DAFB" />
<rect x="32" y="44" width="1" height="1" fill="#61DAFB" />
<rect x="33" y="44" width="1" height="1" fill="#61DAFB" />
<rect x="34" y="44" width="1" height="1" fill="#61DAFB" />
<rect x="35" y="44" width="1" height="1" fill="#61DAFB" />
</svg>