<?xml version="1.0" encoding="UTF-8" ?>
<svg version="1.1" width="48" height="48" xmlns="http://www.w3.org/2000/svg" shape-rendering="crispEdges">
<rect x="12" y="15" width="1" height="1" fill="#990000" />
<rect x="13" y="15" width="1" height="1" fill="#990000" />
<rect x="14" y="15" width="1" height="1" fill="#990000" />
<rect x="15" y="15" width="1" height="1" fill="#990000" />
<rect x="16" y="15" width="1" height="1" fill="#990000" />
<rect x="17" y="15" width="1" height="1" fill="#990000" />
<rect x="18" y="15" width="1" height="1" fill="#990000" />
<rect x="19" y="15" width="1" height="1" fill="#990000" />
<rect x="20" y="15" width="1" height="1" fill="#990000" />
<rect x="21" y="15" width="1" height="1" fill="#990000" />
<rect x="22" y="15" width="1" height="1" fill="#990000" />
<rect x="8" y="16" width="1" height="1" fill="#990000" />
<rect x="9" y="16" width="1" height="1" fill="#990000" />
<rect x="10" y="16" width="1" height="1" fill="#990000" />
<rect x="11" y="16" width="1" height="1" fill="#990000" />
<rect x="12" y="16" width="1" height="1" fill="#990000" />
<rect x="13" y="16" width="1" height="1" fill="#990000" />
<rect x="14" y="16" width="1" height="1" fill="#990000" />
<rect x="15" y="16" width="1" height="1" fill="#990000" />
<rect x="16" y="16" width="1" height="1" fill="#990000" />
<rect x="17" y="16" width="1" height="1" fill="#990000" />
<rect x="18" y="16" width="1" height="1" fill="#990000" />
<rect x="19" y="16" width="1" height="1" fill="#990000" />
<rect x="20" y="16" width="1" height="1" fill="#990000" />
<rect x="21" y="16" width="1" height="1" fill="#990000" />
<rect x="22" y="16" width="1" height="1" fill="#990000" />
<rect x="23" y="16" width="1" height="1" fill="#990000" />
<rect x="24" y="16" width="1" height="1" fill="#990000" />
<rect x="25" y="16" width="1" height="1" fill="#990000" />
<rect x="6" y="17" width="1" height="1" fill="#990000" />
<rect x="7" y="17" width="1" height="1" fill="#990000" />
<rect x="8" y="17" width="1" height="1" fill="#990000" />
<rect x="9" y="17" width="1" height="1" fill="#990000" />
<rect x="10" y="17" width="1" height="1" fill="#990000" />
<rect x="11" y="17" width="1" height="1" fill="#990000" />
<rect x="12" y="17" width="1" height="1" fill="#990000" />
<rect x="13" y="17" width="1" height="1" fill="#990000" />
<rect x="14" y="17" width="1" height="1" fill="#990000" />
<rect x="15" y="17" width="1" height="1" fill="#990000" />
<rect x="16" y="17" width="1" height="1" fill="#990000" />
<rect x="24" y="17" width="1" height="1" fill="#990000" />
<rect x="25" y="17" width="1" height="1" fill="#990000" />
<rect x="26" y="17" width="1" height="1" fill="#990000" />
<rect x="27" y="17" width="1" height="1" fill="#990000" />
<rect x="28" y="17" width="1" height="1" fill="#990000" />
<rect x="4" y="18" width="1" height="1" fill="#990000" />
<rect x="5" y="18" width="1" height="1" fill="#990000" />
<rect x="6" y="18" width="1" height="1" fill="#990000" />
<rect x="7" y="18" width="1" height="1" fill="#990000" />
<rect x="8" y="18" width="1" height="1" fill="#990000" />
<rect x="9" y="18" width="1" height="1" fill="#990000" />
<rect x="10" y="18" width="1" height="1" fill="#990000" />
<rect x="11" y="18" width="1" height="1" fill="#990000" />
<rect x="29" y="18" width="1" height="1" fill="#990000" />
<rect x="3" y="19" width="1" height="1" fill="#990000" />
<rect x="4" y="19" width="1" height="1" fill="#990000" />
<rect x="5" y="19" width="1" height="1" fill="#990000" />
<rect x="6" y="19" width="1" height="1" fill="#990000" />
<rect x="7" y="19" width="1" height="1" fill="#990000" />
<rect x="8" y="19" width="1" height="1" fill="#990000" />
<rect x="9" y="19" width="1" height="1" fill="#990000" />
<rect x="30" y="19" width="1" height="1" fill="#990000" />
<rect x="31" y="19" width="1" height="1" fill="#990000" />
<rect x="2" y="20" width="1" height="1" fill="#990000" />
<rect x="3" y="20" width="1" height="1" fill="#990000" />
<rect x="4" y="20" width="1" height="1" fill="#990000" />
<rect x="5" y="20" width="1" height="1" fill="#990000" />
<rect x="6" y="20" width="1" height="1" fill="#990000" />
<rect x="7" y="20" width="1" height="1" fill="#990000" />
<rect x="12" y="20" width="1" height="1" fill="#990000" />
<rect x="17" y="20" width="1" height="1" fill="#990000" />
<rect x="18" y="20" width="1" height="1" fill="#990000" />
<rect x="1" y="21" width="1" height="1" fill="#990000" />
<rect x="2" y="21" width="1" height="1" fill="#990000" />
<rect x="3" y="21" width="1" height="1" fill="#990000" />
<rect x="4" y="21" width="1" height="1" fill="#990000" />
<rect x="5" y="21" width="1" height="1" fill="#990000" />
<rect x="6" y="21" width="1" height="1" fill="#990000" />
<rect x="7" y="21" width="1" height="1" fill="#990000" />
<rect x="11" y="21" width="1" height="1" fill="#990000" />
<rect x="12" y="21" width="1" height="1" fill="#990000" />
<rect x="13" y="21" width="1" height="1" fill="#990000" />
<rect x="17" y="21" width="1" height="1" fill="#990000" />
<rect x="18" y="21" width="1" height="1" fill="#990000" />
<rect x="24" y="21" width="1" height="1" fill="#990000" />
<rect x="32" y="21" width="1" height="1" fill="#990000" />
<rect x="33" y="21" width="1" height="1" fill="#990000" />
<rect x="34" y="21" width="1" height="1" fill="#990000" />
<rect x="35" y="21" width="1" height="1" fill="#990000" />
<rect x="39" y="21" width="1" height="1" fill="#990000" />
<rect x="40" y="21" width="1" height="1" fill="#990000" />
<rect x="1" y="22" width="1" height="1" fill="#990000" />
<rect x="2" y="22" width="1" height="1" fill="#990000" />
<rect x="3" y="22" width="1" height="1" fill="#990000" />
<rect x="4" y="22" width="1" height="1" fill="#990000" />
<rect x="5" y="22" width="1" height="1" fill="#990000" />
<rect x="6" y="22" width="1" height="1" fill="#990000" />
<rect x="7" y="22" width="1" height="1" fill="#990000" />
<rect x="8" y="22" width="1" height="1" fill="#990000" />
<rect x="11" y="22" width="1" height="1" fill="#990000" />
<rect x="12" y="22" width="1" height="1" fill="#990000" />
<rect x="13" y="22" width="1" height="1" fill="#990000" />
<rect x="16" y="22" width="1" height="1" fill="#990000" />
<rect x="17" y="22" width="1" height="1" fill="#990000" />
<rect x="24" y="22" width="1" height="1" fill="#990000" />
<rect x="31" y="22" width="1" height="1" fill="#990000" />
<rect x="32" y="22" width="1" height="1" fill="#990000" />
<rect x="33" y="22" width="1" height="1" fill="#990000" />
<rect x="34" y="22" width="1" height="1" fill="#990000" />
<rect x="35" y="22" width="1" height="1" fill="#990000" />
<rect x="36" y="22" width="1" height="1" fill="#990000" />
<rect x="39" y="22" width="1" height="1" fill="#990000" />
<rect x="40" y="22" width="1" height="1" fill="#990000" />
<rect x="0" y="23" width="1" height="1" fill="#990000" />
<rect x="1" y="23" width="1" height="1" fill="#990000" />
<rect x="2" y="23" width="1" height="1" fill="#990000" />
<rect x="3" y="23" width="1" height="1" fill="#990000" />
<rect x="4" y="23" width="1" height="1" fill="#990000" />
<rect x="5" y="23" width="1" height="1" fill="#990000" />
<rect x="7" y="23" width="1" height="1" fill="#990000" />
<rect x="8" y="23" width="1" height="1" fill="#990000" />
<rect x="11" y="23" width="1" height="1" fill="#990000" />
<rect x="12" y="23" width="1" height="1" fill="#990000" />
<rect x="13" y="23" width="1" height="1" fill="#990000" />
<rect x="16" y="23" width="1" height="1" fill="#990000" />
<rect x="17" y="23" width="1" height="1" fill="#990000" />
<rect x="19" y="23" width="1" height="1" fill="#990000" />
<rect x="20" y="23" width="1" height="1" fill="#990000" />
<rect x="21" y="23" width="1" height="1" fill="#990000" />
<rect x="24" y="23" width="1" height="1" fill="#990000" />
<rect x="30" y="23" width="1" height="1" fill="#990000" opacity="0.901961" />
<rect x="31" y="23" width="1" height="1" fill="#990000" />
<rect x="36" y="23" width="1" height="1" fill="#990000" />
<rect x="37" y="23" width="1" height="1" fill="#990000" />
<rect x="39" y="23" width="1" height="1" fill="#990000" />
<rect x="40" y="23" width="1" height="1" fill="#990000" />
<rect x="0" y="24" width="1" height="1" fill="#990000" />
<rect x="1" y="24" width="1" height="1" fill="#990000" />
<rect x="2" y="24" width="1" height="1" fill="#990000" />
<rect x="3" y="24" width="1" height="1" fill="#990000" />
<rect x="4" y="24" width="1" height="1" fill="#990000" />
<rect x="8" y="24" width="1" height="1" fill="#990000" />
<rect x="10" y="24" width="1" height="1" fill="#990000" />
<rect x="11" y="24" width="1" height="1" fill="#990000" />
<rect x="12" y="24" width="1" height="1" fill="#990000" />
<rect x="13" y="24" width="1" height="1" fill="#990000" />
<rect x="14" y="24" width="1" height="1" fill="#990000" />
<rect x="16" y="24" width="1" height="1" fill="#990000" />
<rect x="18" y="24" width="1" height="1" fill="#990000" />
<rect x="19" y="24" width="1" height="1" fill="#990000" />
<rect x="20" y="24" width="1" height="1" fill="#990000" />
<rect x="21" y="24" width="1" height="1" fill="#990000" />
<rect x="22" y="24" width="1" height="1" fill="#990000" />
<rect x="24" y="24" width="1" height="1" fill="#990000" />
<rect x="25" y="24" width="1" height="1" fill="#990000" />
<rect x="26" y="24" width="1" height="1" fill="#990000" opacity="0.968627" />
<rect x="27" y="24" width="1" height="1" fill="#990000" />
<rect x="30" y="24" width="1" height="1" fill="#990000" />
<rect x="31" y="24" width="1" height="1" fill="#990000" />
<rect x="39" y="24" width="1" height="1" fill="#990000" />
<rect x="40" y="24" width="1" height="1" fill="#990000" />
<rect x="0" y="25" width="1" height="1" fill="#990000" />
<rect x="1" y="25" width="1" height="1" fill="#990000" />
<rect x="2" y="25" width="1" height="1" fill="#990000" />
<rect x="3" y="25" width="1" height="1" fill="#990000" />
<rect x="4" y="25" width="1" height="1" fill="#990000" />
<rect x="8" y="25" width="1" height="1" fill="#990000" />
<rect x="9" y="25" width="1" height="1" fill="#990000" />
<rect x="10" y="25" width="1" height="1" fill="#990000" />
<rect x="11" y="25" width="1" height="1" fill="#990000" />
<rect x="13" y="25" width="1" height="1" fill="#990000" />
<rect x="14" y="25" width="1" height="1" fill="#990000" />
<rect x="15" y="25" width="1" height="1" fill="#990000" />
<rect x="16" y="25" width="1" height="1" fill="#990000" />
<rect x="18" y="25" width="1" height="1" fill="#990000" />
<rect x="22" y="25" width="1" height="1" fill="#990000" />
<rect x="24" y="25" width="1" height="1" fill="#990000" />
<rect x="25" y="25" width="1" height="1" fill="#990000" />
<rect x="26" y="25" width="1" height="1" fill="#990000" />
<rect x="27" y="25" width="1" height="1" fill="#990000" />
<rect x="28" y="25" width="1" height="1" fill="#990000" />
<rect x="30" y="25" width="1" height="1" fill="#990000" />
<rect x="31" y="25" width="1" height="1" fill="#990000" />
<rect x="34" y="25" width="1" height="1" fill="#990000" />
<rect x="35" y="25" width="1" height="1" fill="#990000" />
<rect x="36" y="25" width="1" height="1" fill="#990000" />
<rect x="37" y="25" width="1" height="1" fill="#990000" />
<rect x="39" y="25" width="1" height="1" fill="#990000" />
<rect x="40" y="25" width="1" height="1" fill="#990000" />
<rect x="0" y="26" width="1" height="1" fill="#990000" />
<rect x="1" y="26" width="1" height="1" fill="#990000" />
<rect x="2" y="26" width="1" height="1" fill="#990000" />
<rect x="3" y="26" width="1" height="1" fill="#990000" />
<rect x="4" y="26" width="1" height="1" fill="#990000" />
<rect x="8" y="26" width="1" height="1" fill="#990000" />
<rect x="9" y="26" width="1" height="1" fill="#990000" />
<rect x="10" y="26" width="1" height="1" fill="#990000" />
<rect x="11" y="26" width="1" height="1" fill="#990000" />
<rect x="13" y="26" width="1" height="1" fill="#990000" />
<rect x="14" y="26" width="1" height="1" fill="#990000" />
<rect x="15" y="26" width="1" height="1" fill="#990000" />
<rect x="16" y="26" width="1" height="1" fill="#990000" />
<rect x="17" y="26" width="1" height="1" fill="#990000" />
<rect x="18" y="26" width="1" height="1" fill="#990000" />
<rect x="19" y="26" width="1" height="1" fill="#990000" />
<rect x="20" y="26" width="1" height="1" fill="#990000" />
<rect x="21" y="26" width="1" height="1" fill="#990000" />
<rect x="22" y="26" width="1" height="1" fill="#990000" />
<rect x="24" y="26" width="1" height="1" fill="#990000" />
<rect x="28" y="26" width="1" height="1" fill="#990000" />
<rect x="30" y="26" width="1" height="1" fill="#990000" />
<rect x="31" y="26" width="1" height="1" fill="#990000" />
<rect x="34" y="26" width="1" height="1" fill="#990000" />
<rect x="35" y="26" width="1" height="1" fill="#990000" />
<rect x="36" y="26" width="1" height="1" fill="#990000" />
<rect x="37" y="26" width="1" height="1" fill="#990000" />
<rect x="39" y="26" width="1" height="1" fill="#990000" />
<rect x="40" y="26" width="1" height="1" fill="#990000" />
<rect x="0" y="27" width="1" height="1" fill="#990000" />
<rect x="1" y="27" width="1" height="1" fill="#990000" />
<rect x="2" y="27" width="1" height="1" fill="#990000" />
<rect x="3" y="27" width="1" height="1" fill="#990000" />
<rect x="4" y="27" width="1" height="1" fill="#990000" />
<rect x="5" y="27" width="1" height="1" fill="#990000" />
<rect x="9" y="27" width="1" height="1" fill="#990000" />
<rect x="10" y="27" width="1" height="1" fill="#990000" />
<rect x="14" y="27" width="1" height="1" fill="#990000" />
<rect x="15" y="27" width="1" height="1" fill="#990000" />
<rect x="16" y="27" width="1" height="1" fill="#990000" />
<rect x="17" y="27" width="1" height="1" fill="#990000" />
<rect x="18" y="27" width="1" height="1" fill="#990000" />
<rect x="24" y="27" width="1" height="1" fill="#990000" />
<rect x="28" y="27" width="1" height="1" fill="#990000" />
<rect x="30" y="27" width="1" height="1" fill="#990000" />
<rect x="31" y="27" width="1" height="1" fill="#990000" />
<rect x="32" y="27" width="1" height="1" fill="#990000" opacity="0.929412" />
<rect x="36" y="27" width="1" height="1" fill="#990000" />
<rect x="37" y="27" width="1" height="1" fill="#990000" />
<rect x="39" y="27" width="1" height="1" fill="#990000" />
<rect x="40" y="27" width="1" height="1" fill="#990000" />
<rect x="1" y="28" width="1" height="1" fill="#990000" />
<rect x="2" y="28" width="1" height="1" fill="#990000" />
<rect x="3" y="28" width="1" height="1" fill="#990000" />
<rect x="4" y="28" width="1" height="1" fill="#990000" />
<rect x="5" y="28" width="1" height="1" fill="#990000" />
<rect x="9" y="28" width="1" height="1" fill="#990000" />
<rect x="10" y="28" width="1" height="1" fill="#990000" />
<rect x="14" y="28" width="1" height="1" fill="#990000" />
<rect x="15" y="28" width="1" height="1" fill="#990000" />
<rect x="18" y="28" width="1" height="1" fill="#990000" />
<rect x="19" y="28" width="1" height="1" fill="#990000" />
<rect x="22" y="28" width="1" height="1" fill="#990000" />
<rect x="24" y="28" width="1" height="1" fill="#990000" />
<rect x="25" y="28" width="1" height="1" fill="#990000" />
<rect x="26" y="28" width="1" height="1" fill="#990000" />
<rect x="27" y="28" width="1" height="1" fill="#990000" />
<rect x="28" y="28" width="1" height="1" fill="#990000" />
<rect x="31" y="28" width="1" height="1" fill="#990000" />
<rect x="32" y="28" width="1" height="1" fill="#990000" />
<rect x="33" y="28" width="1" height="1" fill="#990000" />
<rect x="34" y="28" width="1" height="1" fill="#990000" />
<rect x="35" y="28" width="1" height="1" fill="#990000" />
<rect x="36" y="28" width="1" height="1" fill="#990000" />
<rect x="37" y="28" width="1" height="1" fill="#990000" />
<rect x="39" y="28" width="1" height="1" fill="#990000" />
<rect x="40" y="28" width="1" height="1" fill="#990000" />
<rect x="41" y="28" width="1" height="1" fill="#990000" />
<rect x="42" y="28" width="1" height="1" fill="#990000" />
<rect x="43" y="28" width="1" height="1" fill="#990000" />
<rect x="44" y="28" width="1" height="1" fill="#990000" />
<rect x="1" y="29" width="1" height="1" fill="#990000" />
<rect x="2" y="29" width="1" height="1" fill="#990000" />
<rect x="3" y="29" width="1" height="1" fill="#990000" />
<rect x="4" y="29" width="1" height="1" fill="#990000" />
<rect x="5" y="29" width="1" height="1" fill="#990000" />
<rect x="6" y="29" width="1" height="1" fill="#990000" />
<rect x="9" y="29" width="1" height="1" fill="#990000" />
<rect x="10" y="29" width="1" height="1" fill="#990000" />
<rect x="14" y="29" width="1" height="1" fill="#990000" />
<rect x="15" y="29" width="1" height="1" fill="#990000" />
<rect x="18" y="29" width="1" height="1" fill="#990000" opacity="0.960784" />
<rect x="19" y="29" width="1" height="1" fill="#990000" />
<rect x="20" y="29" width="1" height="1" fill="#990000" />
<rect x="21" y="29" width="1" height="1" fill="#990000" />
<rect x="22" y="29" width="1" height="1" fill="#990000" />
<rect x="24" y="29" width="1" height="1" fill="#990000" />
<rect x="25" y="29" width="1" height="1" fill="#990000" />
<rect x="26" y="29" width="1" height="1" fill="#990000" />
<rect x="27" y="29" width="1" height="1" fill="#990000" />
<rect x="32" y="29" width="1" height="1" fill="#990000" />
<rect x="33" y="29" width="1" height="1" fill="#990000" />
<rect x="34" y="29" width="1" height="1" fill="#990000" />
<rect x="35" y="29" width="1" height="1" fill="#990000" />
<rect x="37" y="29" width="1" height="1" fill="#990000" />
<rect x="39" y="29" width="1" height="1" fill="#990000" />
<rect x="40" y="29" width="1" height="1" fill="#990000" />
<rect x="41" y="29" width="1" height="1" fill="#990000" />
<rect x="42" y="29" width="1" height="1" fill="#990000" />
<rect x="43" y="29" width="1" height="1" fill="#990000" />
<rect x="44" y="29" width="1" height="1" fill="#990000" />
<rect x="47" y="29" width="1" height="1" fill="#990000" />
<rect x="2" y="30" width="1" height="1" fill="#990000" />
<rect x="3" y="30" width="1" height="1" fill="#990000" />
<rect x="4" y="30" width="1" height="1" fill="#990000" />
<rect x="5" y="30" width="1" height="1" fill="#990000" />
<rect x="6" y="30" width="1" height="1" fill="#990000" />
<rect x="7" y="30" width="1" height="1" fill="#990000" />
<rect x="3" y="31" width="1" height="1" fill="#990000" />
<rect x="4" y="31" width="1" height="1" fill="#990000" />
<rect x="5" y="31" width="1" height="1" fill="#990000" />
<rect x="6" y="31" width="1" height="1" fill="#990000" />
<rect x="7" y="31" width="1" height="1" fill="#990000" />
<rect x="8" y="31" width="1" height="1" fill="#990000" />
<rect x="9" y="31" width="1" height="1" fill="#990000" />
<rect x="31" y="31" width="1" height="1" fill="#990000" opacity="0.996078" />
<rect x="4" y="32" width="1" height="1" fill="#990000" />
<rect x="5" y="32" width="1" height="1" fill="#990000" />
<rect x="6" y="32" width="1" height="1" fill="#990000" />
<rect x="7" y="32" width="1" height="1" fill="#990000" />
<rect x="8" y="32" width="1" height="1" fill="#990000" />
<rect x="9" y="32" width="1" height="1" fill="#990000" />
<rect x="10" y="32" width="1" height="1" fill="#990000" />
<rect x="11" y="32" width="1" height="1" fill="#990000" />
<rect x="12" y="32" width="1" height="1" fill="#990000" opacity="0.698039" />
<rect x="29" y="32" width="1" height="1" fill="#990000" />
<rect x="30" y="32" width="1" height="1" fill="#990000" />
<rect x="6" y="33" width="1" height="1" fill="#990000" />
<rect x="7" y="33" width="1" height="1" fill="#990000" />
<rect x="8" y="33" width="1" height="1" fill="#990000" />
<rect x="9" y="33" width="1" height="1" fill="#990000" />
<rect x="10" y="33" width="1" height="1" fill="#990000" />
<rect x="11" y="33" width="1" height="1" fill="#990000" />
<rect x="12" y="33" width="1" height="1" fill="#990000" />
<rect x="13" y="33" width="1" height="1" fill="#990000" />
<rect x="14" y="33" width="1" height="1" fill="#990000" />
<rect x="15" y="33" width="1" height="1" fill="#990000" />
<rect x="16" y="33" width="1" height="1" fill="#990000" />
<rect x="24" y="33" width="1" height="1" fill="#990000" />
<rect x="25" y="33" width="1" height="1" fill="#990000" />
<rect x="26" y="33" width="1" height="1" fill="#990000" />
<rect x="27" y="33" width="1" height="1" fill="#990000" />
<rect x="28" y="33" width="1" height="1" fill="#990000" />
<rect x="8" y="34" width="1" height="1" fill="#990000" />
<rect x="9" y="34" width="1" height="1" fill="#990000" />
<rect x="10" y="34" width="1" height="1" fill="#990000" />
<rect x="11" y="34" width="1" height="1" fill="#990000" />
<rect x="12" y="34" width="1" height="1" fill="#990000" />
<rect x="13" y="34" width="1" height="1" fill="#990000" />
<rect x="14" y="34" width="1" height="1" fill="#990000" />
<rect x="15" y="34" width="1" height="1" fill="#990000" />
<rect x="16" y="34" width="1" height="1" fill="#990000" />
<rect x="17" y="34" width="1" height="1" fill="#990000" />
<rect x="18" y="34" width="1" height="1" fill="#990000" />
<rect x="19" y="34" width="1" height="1" fill="#990000" />
<rect x="20" y="34" width="1" height="1" fill="#990000" />
<rect x="21" y="34" width="1" height="1" fill="#990000" />
<rect x="22" y="34" width="1" height="1" fill="#990000" />
<rect x="23" y="34" width="1" height="1" fill="#990000" />
<rect x="24" y="34" width="1" height="1" fill="#990000" />
<rect x="25" y="34" width="1" height="1" fill="#990000" />
<rect x="12" y="35" width="1" height="1" fill="#990000" />
<rect x="13" y="35" width="1" height="1" fill="#990000" />
<rect x="14" y="35" width="1" height="1" fill="#990000" />
<rect x="15" y="35" width="1" height="1" fill="#990000" />
<rect x="16" y="35" width="1" height="1" fill="#990000" />
<rect x="17" y="35" width="1" height="1" fill="#990000" />
<rect x="18" y="35" width="1" height="1" fill="#990000" />
<rect x="19" y="35" width="1" height="1" fill="#990000" />
<rect x="20" y="35" width="1" height="1" fill="#990000" />
<rect x="21" y="35" width="1" height="1" fill="#990000" />
<rect x="22" y="35" width="1" height="1" fill="#990000" />
</svg>